G04 ================== begin FILE IDENTIFICATION RECORD ==================*
G04 Layout Name:  C:/USERS/USER/DESKTOP/EX/OSCILLATOR/allegro/OSCILLATOR.brd*
G04 Film Name:    BOTTOM*
G04 File Format:  Gerber RS274X*
G04 File Origin:  Cadence Allegro 17.2-P019*
G04 Origin Date:  Thu Aug 01 11:30:56 2019*
G04 *
G04 Layer:  ETCH/BOTTOM*
G04 Layer:  PIN/BOTTOM*
G04 Layer:  VIA CLASS/BOTTOM*
G04 *
G04 Offset:    (0.000 0.000)*
G04 Mirror:    No*
G04 Mode:      Positive*
G04 Rotation:  0*
G04 FullContactRelief:  No*
G04 UndefLineWidth:     0.000*
G04 ================== end FILE IDENTIFICATION RECORD ====================*
%FSLAX25Y25*MOIN*%
%IR0*IPPOS*OFA0.00000B0.00000*MIA0B0*SFA1.00000B1.00000*%
%ADD11C,.06*%
%ADD12C,.065*%
%ADD14C,.075*%
%ADD15R,.06X.06*%
%ADD13R,.075X.075*%
%ADD10C,.025*%
%ADD16C,.03937*%
%ADD17C,.019685*%
%ADD20C,.080157*%
%ADD18C,.085197*%
%ADD19C,.095197*%
G75*
%LPD*%
G75*
G36*
G01X56524Y51992D02*
X25827D01*
X21677Y56142D01*
Y134004D01*
G03X19685Y141488I-1992J3477D01*
G01Y143472D01*
G03Y151488I0J4008D01*
G01Y153472D01*
G03X23161Y155488I0J4006D01*
G01X26693D01*
X28008Y154173D01*
Y106673D01*
X36673Y98008D01*
X56524D01*
G03Y101992I3476J1992D01*
G01X38327D01*
X31992Y108327D01*
Y155827D01*
X28346Y159472D01*
X23161D01*
G03X19685Y161488I-3476J-1990D01*
G01Y245898D01*
X29693D01*
Y255906D01*
X364008D01*
Y245898D01*
X374016D01*
Y151803D01*
G03Y143787I0J-4008D01*
G01Y141803D01*
G03Y133787I0J-4008D01*
G01Y29693D01*
X364008D01*
Y19685D01*
X29693D01*
Y29693D01*
X19685D01*
Y51528D01*
G02X20370Y51811I401J0D01*
G01X24173Y48008D01*
X56524D01*
G03Y51992I3476J1992D01*
G37*
%LPC*%
G75*
G36*
G01X205992Y87000D02*
Y93000D01*
G02X207000Y94008I1008J0D01*
G01X213000D01*
G02X214008Y93000I0J-1008D01*
G01Y87000D01*
G02X213000Y85992I-1008J0D01*
G01X207000D01*
G02X205992Y87000I0J1008D01*
G37*
G36*
G01Y37000D02*
Y43000D01*
G02X207000Y44008I1008J0D01*
G01X213000D01*
G02X214008Y43000I0J-1008D01*
G01Y37000D01*
G02X213000Y35992I-1008J0D01*
G01X207000D01*
G02X205992Y37000I0J1008D01*
G37*
G36*
G01X185992Y207000D02*
Y213000D01*
G02X187000Y214008I1008J0D01*
G01X193000D01*
G02X194008Y213000I0J-1008D01*
G01Y207000D01*
G02X193000Y205992I-1008J0D01*
G01X187000D01*
G02X185992Y207000I0J1008D01*
G37*
G36*
G01X85244Y86252D02*
Y93748D01*
G02X86252Y94756I1006J2D01*
G01X93748D01*
G02X94756Y93748I2J-1006D01*
G01Y86252D01*
G02X93748Y85244I-1006J-2D01*
G01X86252D01*
G02X85244Y86252I-2J1006D01*
G37*
G36*
G01X151992Y244705D02*
Y203764D01*
G02X148008I-1992J-3764D01*
G01Y246358D01*
X151142Y249492D01*
X208858D01*
X211992Y246358D01*
Y243476D01*
G02X208008I-1992J-3476D01*
G01Y244705D01*
X207205Y245508D01*
X152795D01*
X151992Y244705D01*
G37*
G36*
G01X73870Y228949D02*
X78949Y223870D01*
X79059Y223894D01*
G02X81992Y216524I938J-3896D01*
G01Y203764D01*
G02X78008I-1992J-3764D01*
G01Y216524D01*
G02X76106Y220941I1993J3476D01*
G01X76130Y221051D01*
X71051Y226130D01*
X70941Y226106D01*
G02X73894Y229059I-941J3894D01*
G01X73870Y228949D01*
G37*
G36*
G01X61992Y203764D02*
G02X58008I-1992J-3764D01*
G01Y216524D01*
G02X61992I1992J3476D01*
G01Y203764D01*
G37*
G36*
G01X151992Y86524D02*
Y63476D01*
G02X148008I-1992J-3476D01*
G01Y86524D01*
G02X151992I1992J3476D01*
G37*
G36*
G01X61992D02*
Y63476D01*
G02X58008I-1992J-3476D01*
G01Y86524D01*
G02X61992I1992J3476D01*
G37*
G36*
G01X104756Y46252D02*
G02X103748Y45244I-1006J-2D01*
G01X96252D01*
G02X95244Y46252I-2J1006D01*
G01Y53748D01*
G02X96252Y54756I1006J2D01*
G01X98008D01*
Y85677D01*
G02X101992I1992J4323D01*
G01Y54756D01*
X103748D01*
G02X104756Y53748I2J-1006D01*
G01Y46252D01*
G37*
G36*
G01X189492Y91142D02*
X186358Y88008D01*
X183476D01*
G02X176524I-3476J1992D01*
G01X166142D01*
X163008Y91142D01*
Y104705D01*
X162205Y105508D01*
X86673D01*
X78008Y114173D01*
Y156236D01*
G02X81992I1992J3764D01*
G01Y115827D01*
X88327Y109492D01*
X163858D01*
X166992Y106358D01*
Y92795D01*
X167795Y91992D01*
X176524D01*
G02X183476I3476J-1992D01*
G01X184705D01*
X185508Y92795D01*
Y106673D01*
X180508Y111673D01*
Y198858D01*
X183642Y201992D01*
X199972D01*
X200441Y202461D01*
X207146D01*
X208008Y203323D01*
Y206524D01*
G02X211992I1992J3476D01*
G01Y201669D01*
X210500Y200177D01*
G03X210783Y199492I283J-284D01*
G01X224705D01*
X225508Y200295D01*
Y227205D01*
X224705Y228008D01*
X201142D01*
X198008Y231142D01*
Y236524D01*
G02X201992I1992J3476D01*
G01Y232795D01*
X202795Y231992D01*
X226358D01*
X229492Y228858D01*
Y198642D01*
X226358Y195508D01*
X203327D01*
X201992Y194173D01*
Y193476D01*
G02Y186524I-1992J-3476D01*
G01Y184173D01*
X197008Y179189D01*
Y163567D01*
G03X197646Y163244I401J1D01*
G02Y156756I2354J-3244D01*
G03X197008Y156433I-237J-324D01*
G01Y132795D01*
X200311Y129492D01*
X218858D01*
X221992Y126358D01*
Y123476D01*
G02X222370Y123232I-1982J-3483D01*
G03X223008Y123555I236J324D01*
G01Y126669D01*
X213008Y136669D01*
Y156445D01*
G03X212370Y156768I-401J-2D01*
G02X209740Y164000I-2370J3233D01*
G03X210000Y164685I-24J401D01*
G01X208008Y166673D01*
Y186524D01*
G02X213476Y191992I1992J3476D01*
G01X215827D01*
X215898Y191921D01*
G03X216528Y192004I283J283D01*
G02X217646Y186756I3472J-2003D01*
G03X217008Y186433I-237J-324D01*
G01Y177795D01*
X217811Y176992D01*
X305827D01*
X311992Y170827D01*
Y153764D01*
G02X308008I-1992J-3764D01*
G01Y169173D01*
X304173Y173008D01*
X216157D01*
X213024Y176142D01*
Y186457D01*
G03X212382Y186780I-402J0D01*
G02X211992Y186524I-2390J3216D01*
G01Y168327D01*
X216992Y163327D01*
Y162933D01*
X217268D01*
X217327Y162984D01*
G02X222685Y162976I2675J-2984D01*
G01X243732D01*
X255476Y151232D01*
Y106268D01*
X248732Y99524D01*
X243732D01*
X242976Y98768D01*
Y92976D01*
X251232D01*
X255764Y88445D01*
Y40492D01*
X250083Y34811D01*
X240980D01*
X239795Y35996D01*
X239720Y36004D01*
G02X243902Y40917I280J3997D01*
G01X243937Y40764D01*
X247618D01*
X249811Y42957D01*
Y85980D01*
X248768Y87024D01*
X242685D01*
G02X237024Y92685I-2685J2976D01*
G01Y101232D01*
X241268Y105476D01*
X246268D01*
X249524Y108732D01*
Y148768D01*
X241268Y157024D01*
X222685D01*
G02X217630Y156768I-2685J2976D01*
G03X216992Y156445I-236J-324D01*
G01Y138323D01*
X226992Y128323D01*
Y123555D01*
G03X227630Y123232I401J2D01*
G02X230260Y116000I2370J-3233D01*
G03X230000Y115315I24J-401D01*
G01X231992Y113327D01*
Y93476D01*
G02X228008I-1992J-3476D01*
G01Y111673D01*
X223008Y116673D01*
Y117067D01*
X222732D01*
X222673Y117016D01*
G02X221992Y116524I-2674J2984D01*
G01Y114173D01*
X218327Y110508D01*
X205827D01*
X201992Y106673D01*
Y83327D01*
X205827Y79492D01*
X218858D01*
X221992Y76358D01*
Y73476D01*
G02X218008I-1992J-3476D01*
G01Y74705D01*
X217205Y75508D01*
X204173D01*
X198008Y81673D01*
Y108327D01*
X204173Y114492D01*
X216673D01*
X218008Y115827D01*
Y116524D01*
G02Y123476I1992J3476D01*
G01Y124705D01*
X217205Y125508D01*
X198657D01*
X193024Y131142D01*
Y155992D01*
X187000D01*
G02X185992Y157000I0J1008D01*
G01Y163000D01*
G02X187000Y164008I1008J0D01*
G01X193024D01*
Y180843D01*
X198008Y185827D01*
Y186524D01*
G02Y193476I1992J3476D01*
G01Y195827D01*
X199504Y197323D01*
G03X199220Y198008I-283J284D01*
G01X185295D01*
X184492Y197205D01*
Y113327D01*
X189492Y108327D01*
Y91142D01*
G37*
G54D20*
X110000Y180000D03*
Y190000D03*
X150000Y50000D03*
X140000Y90000D03*
X180000Y100000D03*
X190000Y190000D03*
Y240000D03*
X220000Y40000D03*
X210000Y70000D03*
X220000Y90000D03*
X210000Y120000D03*
X220000Y210000D03*
X200000D03*
X220000Y240000D03*
X230000Y40000D03*
X240000Y70000D03*
X230000D03*
X240000Y120000D03*
G54D18*
X60000Y160000D03*
X130000D03*
Y200000D03*
X150000Y160000D03*
X170000D03*
Y200000D03*
X270000Y110000D03*
Y150000D03*
X290000Y110000D03*
X310000D03*
X290000Y150000D03*
X330000Y110000D03*
Y150000D03*
X350000Y110000D03*
Y150000D03*
G54D19*
X110000Y50000D03*
X120000D03*
X110000Y90000D03*
%LPD*%
G75*
G54D10*
X19685Y19685D03*
Y255906D03*
X374016Y19685D03*
Y255906D03*
G54D11*
X19685Y137480D03*
Y147480D03*
Y157480D03*
X60000Y50000D03*
Y60000D03*
Y90000D03*
Y100000D03*
Y220000D03*
X70000Y230000D03*
X80000Y220000D03*
X110000Y180000D03*
Y190000D03*
X150000Y50000D03*
Y60000D03*
Y90000D03*
X140000D03*
X180000Y100000D03*
Y90000D03*
X190000Y190000D03*
Y240000D03*
X220000Y40000D03*
Y70000D03*
X210000D03*
X220000Y90000D03*
Y120000D03*
X210000D03*
X220000Y160000D03*
X210000D03*
X200000D03*
X220000Y190000D03*
X210000D03*
X200000D03*
X220000Y210000D03*
X210000D03*
X200000D03*
X220000Y240000D03*
X210000D03*
X200000D03*
X240000Y40000D03*
X230000D03*
X240000Y70000D03*
X230000D03*
X240000Y90000D03*
X230000D03*
X240000Y120000D03*
X230000D03*
X374016Y147795D03*
Y137795D03*
G54D12*
X60000Y160000D03*
Y200000D03*
X80000Y160000D03*
Y200000D03*
X130000Y160000D03*
Y200000D03*
X150000Y160000D03*
Y200000D03*
X170000Y160000D03*
Y200000D03*
X270000Y110000D03*
Y150000D03*
X290000Y110000D03*
X310000D03*
X290000Y150000D03*
X310000D03*
X330000Y110000D03*
Y150000D03*
X350000Y110000D03*
Y150000D03*
G54D13*
X100000Y50000D03*
X90000Y90000D03*
G54D14*
X100000D03*
X110000Y50000D03*
X120000D03*
X110000Y90000D03*
G54D15*
X190000Y160000D03*
Y210000D03*
X210000Y40000D03*
Y90000D03*
G54D16*
G01X24980Y147480D02*
X25000Y147500D01*
G01X19685Y147480D02*
X24980D01*
G01X60000Y160000D02*
X64461D01*
G01X55539D02*
X60000D01*
G01D02*
Y164461D01*
G01Y155539D02*
Y160000D01*
G01X175791Y100000D02*
X180000D01*
G01D02*
Y104209D01*
G01X170000Y200000D02*
X174461D01*
G01X165539D02*
X170000D01*
G01D02*
Y204461D01*
G01Y195539D02*
Y200000D01*
G01X220000Y40000D02*
Y44209D01*
G01Y35791D02*
Y40000D01*
G01X240000Y90000D02*
Y100000D01*
X242500Y102500D01*
X247500D01*
X252500Y107500D01*
Y150000D01*
X242500Y160000D01*
X220000D01*
G01X240000Y40000D02*
X242213Y37787D01*
X248850D01*
X252787Y41724D01*
Y87213D01*
X250000Y90000D01*
X240000D01*
G01X290000Y150000D02*
X294461D01*
G01X285539D02*
X290000D01*
G01D02*
Y154461D01*
G01Y145539D02*
Y150000D01*
G01X369807Y147795D02*
X374016D01*
G01D02*
Y152004D01*
G54D17*
G01X60000Y50000D02*
X25000D01*
X19685Y55315D01*
Y137480D01*
G01X60000Y100000D02*
X37500D01*
X30000Y107500D01*
Y155000D01*
X27520Y157480D01*
X19685D01*
G01X60000Y90000D02*
Y60000D01*
G01Y220000D02*
Y200000D01*
G01X70000Y230000D02*
X80000Y220000D01*
G01X100000Y90000D02*
Y50000D01*
G01X180000Y90000D02*
X166969D01*
X165000Y91969D01*
Y105531D01*
X163031Y107500D01*
X87500D01*
X80000Y115000D01*
Y160000D01*
G01Y220000D02*
Y200000D01*
G01X150000Y90000D02*
Y60000D01*
G01X210000Y240000D02*
Y245531D01*
X208031Y247500D01*
X151969D01*
X150000Y245531D01*
Y200000D01*
G01X210000Y210000D02*
Y202496D01*
X207972Y200469D01*
X201268D01*
X200799Y200000D01*
X184469D01*
X182500Y198031D01*
Y112500D01*
X187500Y107500D01*
Y91969D01*
X185531Y90000D01*
X180000D01*
G01X220000Y70000D02*
Y75531D01*
X218031Y77500D01*
X205000D01*
X200000Y82500D01*
Y107500D01*
X205000Y112500D01*
X217500D01*
X220000Y115000D01*
Y120000D01*
G01X230000Y90000D02*
Y112500D01*
X225000Y117500D01*
Y127496D01*
X215000Y137496D01*
Y162500D01*
X210000Y167500D01*
Y190000D01*
G01X220000Y120000D02*
Y125531D01*
X218031Y127500D01*
X199484D01*
X195016Y131969D01*
Y180016D01*
X200000Y185000D01*
Y190000D01*
G01X310000Y150000D02*
Y170000D01*
X305000Y175000D01*
X216984D01*
X215016Y176969D01*
Y189984D01*
X215000Y190000D01*
X210000D01*
G01X200000Y240000D02*
Y231969D01*
X201969Y230000D01*
X225531D01*
X227500Y228031D01*
Y199469D01*
X225531Y197500D01*
X202500D01*
X200000Y195000D01*
Y190000D01*
M02*
