G04 ================== begin FILE IDENTIFICATION RECORD ==================*
G04 Layout Name:  C:/USERS/USER/DESKTOP/EX/OSCILLATOR/allegro/OSCILLATOR.brd*
G04 Film Name:    BOTTOM*
G04 File Format:  Gerber RS274X*
G04 File Origin:  Cadence Allegro 17.2-P019*
G04 Origin Date:  Thu Aug 01 11:31:07 2019*
G04 *
G04 Layer:  ETCH/BOTTOM*
G04 Layer:  PIN/BOTTOM*
G04 Layer:  VIA CLASS/BOTTOM*
G04 *
G04 Offset:    (0.000 0.000)*
G04 Mirror:    No*
G04 Mode:      Positive*
G04 Rotation:  0*
G04 FullContactRelief:  No*
G04 UndefLineWidth:     0.000*
G04 ================== end FILE IDENTIFICATION RECORD ====================*
%FSLAX25Y25*MOMM*%
%IR0*IPPOS*OFA0.00000B0.00000*MIA0B0*SFA1.00000B1.00000*%
%ADD11C,1.524*%
%ADD12C,1.651*%
%ADD14C,1.905*%
%ADD15R,1.524X1.524*%
%ADD13R,1.905X1.905*%
%ADD10C,.635*%
%ADD16C,1.*%
%ADD17C,.5*%
%ADD20C,2.036*%
%ADD18C,2.164*%
%ADD19C,2.418*%
G75*
%LPD*%
G75*
G36*
G01X1435700Y1320600D02*
X656000D01*
X550600Y1426000D01*
Y3403700D01*
G03X500000Y3593800I-50600J88316D01*
G01Y3644200D01*
G03Y3847800I0J101800D01*
G01Y3898200D01*
G03X588300Y3949400I0J101742D01*
G01X678000D01*
X711400Y3916000D01*
Y2709500D01*
X931500Y2489400D01*
X1435700D01*
G03Y2590600I88300J50600D01*
G01X973500D01*
X812600Y2751500D01*
Y3958000D01*
X720000Y4050600D01*
X588300D01*
G03X500000Y4101800I-88300J-50542D01*
G01Y6245800D01*
X754200D01*
Y6500000D01*
X9245800D01*
Y6245800D01*
X9500000D01*
Y3855800D01*
G03Y3652200I0J-101800D01*
G01Y3601800D01*
G03Y3398200I0J-101800D01*
G01Y754200D01*
X9245800D01*
Y500000D01*
X754200D01*
Y754200D01*
X500000D01*
Y1308800D01*
G02X517400Y1316000I10187J6D01*
G01X614000Y1219400D01*
X1435700D01*
G03Y1320600I88300J50600D01*
G37*
%LPC*%
G75*
G36*
G01X5232200Y2209800D02*
Y2362200D01*
G02X5257800Y2387800I25600J0D01*
G01X5410200D01*
G02X5435800Y2362200I0J-25600D01*
G01Y2209800D01*
G02X5410200Y2184200I-25600J0D01*
G01X5257800D01*
G02X5232200Y2209800I0J25600D01*
G37*
G36*
G01Y939800D02*
Y1092200D01*
G02X5257800Y1117800I25600J0D01*
G01X5410200D01*
G02X5435800Y1092200I0J-25600D01*
G01Y939800D01*
G02X5410200Y914200I-25600J0D01*
G01X5257800D01*
G02X5232200Y939800I0J25600D01*
G37*
G36*
G01X4724200Y5257800D02*
Y5410200D01*
G02X4749800Y5435800I25600J0D01*
G01X4902200D01*
G02X4927800Y5410200I0J-25600D01*
G01Y5257800D01*
G02X4902200Y5232200I-25600J0D01*
G01X4749800D01*
G02X4724200Y5257800I0J25600D01*
G37*
G36*
G01X2165200Y2190800D02*
Y2381200D01*
G02X2190800Y2406800I25550J50D01*
G01X2381200D01*
G02X2406800Y2381200I50J-25550D01*
G01Y2190800D01*
G02X2381200Y2165200I-25550J-50D01*
G01X2190800D01*
G02X2165200Y2190800I-50J25550D01*
G37*
G36*
G01X3860600Y6215500D02*
Y5175600D01*
G02X3759400I-50600J-95600D01*
G01Y6257500D01*
X3839000Y6337100D01*
X5305000D01*
X5384600Y6257500D01*
Y6184300D01*
G02X5283400I-50600J-88300D01*
G01Y6215500D01*
X5263000Y6235900D01*
X3881000D01*
X3860600Y6215500D01*
G37*
G36*
G01X1876300Y5815300D02*
X2005300Y5686300D01*
X2008100Y5686900D01*
G02X2082600Y5499700I23814J-98947D01*
G01Y5175600D01*
G02X1981400I-50600J-95600D01*
G01Y5499700D01*
G02X1933100Y5611900I50624J88289D01*
G01X1933700Y5614700D01*
X1804700Y5743700D01*
X1801900Y5743100D01*
G02X1876900Y5818100I-23900J98900D01*
G01X1876300Y5815300D01*
G37*
G36*
G01X1574600Y5175600D02*
G02X1473400I-50600J-95600D01*
G01Y5499700D01*
G02X1574600I50600J88300D01*
G01Y5175600D01*
G37*
G36*
G01X3860600Y2197700D02*
Y1612300D01*
G02X3759400I-50600J-88300D01*
G01Y2197700D01*
G02X3860600I50600J88300D01*
G37*
G36*
G01X1574600D02*
Y1612300D01*
G02X1473400I-50600J-88300D01*
G01Y2197700D01*
G02X1574600I50600J88300D01*
G37*
G36*
G01X2660800Y1174800D02*
G02X2635200Y1149200I-25550J-50D01*
G01X2444800D01*
G02X2419200Y1174800I-50J25550D01*
G01Y1365200D01*
G02X2444800Y1390800I25550J50D01*
G01X2489400D01*
Y2176200D01*
G02X2590600I50600J109800D01*
G01Y1390800D01*
X2635200D01*
G02X2660800Y1365200I50J-25550D01*
G01Y1174800D01*
G37*
G36*
G01X4813100Y2315000D02*
X4733500Y2235400D01*
X4660300D01*
G02X4483700I-88300J50600D01*
G01X4220000D01*
X4140400Y2315000D01*
Y2659500D01*
X4120000Y2679900D01*
X2201500D01*
X1981400Y2900000D01*
Y3968400D01*
G02X2082600I50600J95600D01*
G01Y2942000D01*
X2243500Y2781100D01*
X4162000D01*
X4241600Y2701500D01*
Y2357000D01*
X4262000Y2336600D01*
X4483700D01*
G02X4660300I88300J-50600D01*
G01X4691500D01*
X4711900Y2357000D01*
Y2709500D01*
X4584900Y2836500D01*
Y5051000D01*
X4664500Y5130600D01*
X5079300D01*
X5091200Y5142500D01*
X5261500D01*
X5283400Y5164400D01*
Y5245700D01*
G02X5384600I50600J88300D01*
G01Y5122400D01*
X5346700Y5084500D01*
G03X5353900Y5067100I7194J-7213D01*
G01X5707500D01*
X5727900Y5087500D01*
Y5771000D01*
X5707500Y5791400D01*
X5109000D01*
X5029400Y5871000D01*
Y6007700D01*
G02X5130600I50600J88300D01*
G01Y5913000D01*
X5151000Y5892600D01*
X5749500D01*
X5829100Y5813000D01*
Y5045500D01*
X5749500Y4965900D01*
X5164500D01*
X5130600Y4932000D01*
Y4914300D01*
G02Y4737700I-50600J-88300D01*
G01Y4678000D01*
X5004000Y4551400D01*
Y4154600D01*
G03X5020200Y4146400I10193J34D01*
G02Y3981600I59800J-82400D01*
G03X5004000Y3973400I-6007J-8234D01*
G01Y3373000D01*
X5087900Y3289100D01*
X5559000D01*
X5638600Y3209500D01*
Y3136300D01*
G02X5648200Y3130100I-50338J-88475D01*
G03X5664400Y3138300I6005J8239D01*
G01Y3217400D01*
X5410400Y3471400D01*
Y3973700D01*
G03X5394200Y3981900I-10195J-39D01*
G02X5327400Y4165600I-60190J82108D01*
G03X5334000Y4183000I-621J10187D01*
G01X5283400Y4233500D01*
Y4737700D01*
G02X5422300Y4876600I50600J88300D01*
G01X5482000D01*
X5483800Y4874800D01*
G03X5499800Y4876900I7193J7198D01*
G02X5528200Y4743600I88187J-50887D01*
G03X5512000Y4735400I-6007J-8234D01*
G01Y4516000D01*
X5532400Y4495600D01*
X7768000D01*
X7924600Y4339000D01*
Y3905600D01*
G02X7823400I-50600J-95600D01*
G01Y4297000D01*
X7726000Y4394400D01*
X5490400D01*
X5410800Y4474000D01*
Y4736000D01*
G03X5394500Y4744200I-10216J-7D01*
G02X5384600Y4737700I-60711J81679D01*
G01Y4275500D01*
X5511600Y4148500D01*
Y4138500D01*
X5518600D01*
X5520100Y4139800D01*
G02X5656200Y4139600I67939J-75804D01*
G01X6190800D01*
X6489100Y3841300D01*
Y2699200D01*
X6317800Y2527900D01*
X6190800D01*
X6171600Y2508700D01*
Y2361600D01*
X6381300D01*
X6496400Y2246500D01*
Y1028500D01*
X6352100Y884200D01*
X6120900D01*
X6090800Y914300D01*
X6088900Y914500D01*
G02X6195100Y1039300I7111J101535D01*
G01X6196000Y1035400D01*
X6289500D01*
X6345200Y1091100D01*
Y2183900D01*
X6318700Y2210400D01*
X6164200D01*
G02X6020400Y2354200I-68200J75600D01*
G01Y2571300D01*
X6128200Y2679100D01*
X6255200D01*
X6337900Y2761800D01*
Y3778700D01*
X6128200Y3988400D01*
X5656200D01*
G02X5527800Y3981900I-68191J75596D01*
G03X5511600Y3973700I-6005J-8239D01*
G01Y3513400D01*
X5765600Y3259400D01*
Y3138300D01*
G03X5781800Y3130100I10195J39D01*
G02X5848600Y2946400I60190J-82108D01*
G03X5842000Y2929000I621J-10187D01*
G01X5892600Y2878500D01*
Y2374300D01*
G02X5791400I-50600J-88300D01*
G01Y2836500D01*
X5664400Y2963500D01*
Y2973500D01*
X5657400D01*
X5655900Y2972200D01*
G02X5638600Y2959700I-67929J75792D01*
G01Y2900000D01*
X5545500Y2806900D01*
X5228000D01*
X5130600Y2709500D01*
Y2116500D01*
X5228000Y2019100D01*
X5559000D01*
X5638600Y1939500D01*
Y1866300D01*
G02X5537400I-50600J-88300D01*
G01Y1897500D01*
X5517000Y1917900D01*
X5186000D01*
X5029400Y2074500D01*
Y2751500D01*
X5186000Y2908100D01*
X5503500D01*
X5537400Y2942000D01*
Y2959700D01*
G02Y3136300I50600J88300D01*
G01Y3167500D01*
X5517000Y3187900D01*
X5045900D01*
X4902800Y3331000D01*
Y3962200D01*
X4749800D01*
G02X4724200Y3987800I0J25600D01*
G01Y4140200D01*
G02X4749800Y4165800I25600J0D01*
G01X4902800D01*
Y4593400D01*
X5029400Y4720000D01*
Y4737700D01*
G02Y4914300I50600J88300D01*
G01Y4974000D01*
X5067400Y5012000D01*
G03X5060200Y5029400I-7194J7213D01*
G01X4706500D01*
X4686100Y5009000D01*
Y2878500D01*
X4813100Y2751500D01*
Y2315000D01*
G37*
G54D20*
X2794000Y4572000D03*
Y4826000D03*
X3810000Y1270000D03*
X3556000Y2286000D03*
X4572000Y2540000D03*
X4826000Y4826000D03*
Y6096000D03*
X5588000Y1016000D03*
X5334000Y1778000D03*
X5588000Y2286000D03*
X5334000Y3048000D03*
X5588000Y5334000D03*
X5080000D03*
X5588000Y6096000D03*
X5842000Y1016000D03*
X6096000Y1778000D03*
X5842000D03*
X6096000Y3048000D03*
G54D18*
X1524000Y4064000D03*
X3302000D03*
Y5080000D03*
X3810000Y4064000D03*
X4318000D03*
Y5080000D03*
X6858000Y2794000D03*
Y3810000D03*
X7366000Y2794000D03*
X7874000D03*
X7366000Y3810000D03*
X8382000Y2794000D03*
Y3810000D03*
X8890000Y2794000D03*
Y3810000D03*
G54D19*
X2794000Y1270000D03*
X3048000D03*
X2794000Y2286000D03*
%LPD*%
G75*
G54D10*
X500000Y500000D03*
Y6500000D03*
X9500000Y500000D03*
Y6500000D03*
G54D11*
X500000Y3492000D03*
Y3746000D03*
Y4000000D03*
X1524000Y1270000D03*
Y1524000D03*
Y2286000D03*
Y2540000D03*
Y5588000D03*
X1778000Y5842000D03*
X2032000Y5588000D03*
X2794000Y4572000D03*
Y4826000D03*
X3810000Y1270000D03*
Y1524000D03*
Y2286000D03*
X3556000D03*
X4572000Y2540000D03*
Y2286000D03*
X4826000Y4826000D03*
Y6096000D03*
X5588000Y1016000D03*
Y1778000D03*
X5334000D03*
X5588000Y2286000D03*
Y3048000D03*
X5334000D03*
X5588000Y4064000D03*
X5334000D03*
X5080000D03*
X5588000Y4826000D03*
X5334000D03*
X5080000D03*
X5588000Y5334000D03*
X5334000D03*
X5080000D03*
X5588000Y6096000D03*
X5334000D03*
X5080000D03*
X6096000Y1016000D03*
X5842000D03*
X6096000Y1778000D03*
X5842000D03*
X6096000Y2286000D03*
X5842000D03*
X6096000Y3048000D03*
X5842000D03*
X9500000Y3754000D03*
Y3500000D03*
G54D12*
X1524000Y4064000D03*
Y5080000D03*
X2032000Y4064000D03*
Y5080000D03*
X3302000Y4064000D03*
Y5080000D03*
X3810000Y4064000D03*
Y5080000D03*
X4318000Y4064000D03*
Y5080000D03*
X6858000Y2794000D03*
Y3810000D03*
X7366000Y2794000D03*
X7874000D03*
X7366000Y3810000D03*
X7874000D03*
X8382000Y2794000D03*
Y3810000D03*
X8890000Y2794000D03*
Y3810000D03*
G54D13*
X2540000Y1270000D03*
X2286000Y2286000D03*
G54D14*
X2540000D03*
X2794000Y1270000D03*
X3048000D03*
X2794000Y2286000D03*
G54D15*
X4826000Y4064000D03*
Y5334000D03*
X5334000Y1016000D03*
Y2286000D03*
G54D16*
G01X634500Y3746000D02*
X635000Y3746500D01*
G01X500000Y3746000D02*
X634500D01*
G01X1524000Y4064000D02*
X1637300D01*
G01X1410700D02*
X1524000D01*
G01D02*
Y4177300D01*
G01Y3950700D02*
Y4064000D01*
G01X4465100Y2540000D02*
X4572000D01*
G01D02*
Y2646900D01*
G01X4318000Y5080000D02*
X4431300D01*
G01X4204700D02*
X4318000D01*
G01D02*
Y5193300D01*
G01Y4966700D02*
Y5080000D01*
G01X5588000Y1016000D02*
Y1122900D01*
G01Y909100D02*
Y1016000D01*
G01X6096000Y2286000D02*
Y2540000D01*
X6159500Y2603500D01*
X6286500D01*
X6413500Y2730500D01*
Y3810000D01*
X6159500Y4064000D01*
X5588000D01*
G01X6096000Y1016000D02*
X6152200Y959800D01*
X6320800D01*
X6420800Y1059800D01*
Y2215200D01*
X6350000Y2286000D01*
X6096000D01*
G01X7366000Y3810000D02*
X7479300D01*
G01X7252700D02*
X7366000D01*
G01D02*
Y3923300D01*
G01Y3696700D02*
Y3810000D01*
G01X9393100Y3754000D02*
X9500000D01*
G01D02*
Y3860900D01*
G54D17*
G01X1524000Y1270000D02*
X635000D01*
X500000Y1405000D01*
Y3492000D01*
G01X1524000Y2540000D02*
X952500D01*
X762000Y2730500D01*
Y3937000D01*
X699000Y4000000D01*
X500000D01*
G01X1524000Y2286000D02*
Y1524000D01*
G01Y5588000D02*
Y5080000D01*
G01X1778000Y5842000D02*
X2032000Y5588000D01*
G01X2540000Y2286000D02*
Y1270000D01*
G01X4572000Y2286000D02*
X4241000D01*
X4191000Y2336000D01*
Y2680500D01*
X4141000Y2730500D01*
X2222500D01*
X2032000Y2921000D01*
Y4064000D01*
G01Y5588000D02*
Y5080000D01*
G01X3810000Y2286000D02*
Y1524000D01*
G01X5334000Y6096000D02*
Y6236500D01*
X5284000Y6286500D01*
X3860000D01*
X3810000Y6236500D01*
Y5080000D01*
G01X5334000Y5334000D02*
Y5143400D01*
X5282500Y5091900D01*
X5112200D01*
X5100300Y5080000D01*
X4685500D01*
X4635500Y5030000D01*
Y2857500D01*
X4762500Y2730500D01*
Y2336000D01*
X4712500Y2286000D01*
X4572000D01*
G01X5588000Y1778000D02*
Y1918500D01*
X5538000Y1968500D01*
X5207000D01*
X5080000Y2095500D01*
Y2730500D01*
X5207000Y2857500D01*
X5524500D01*
X5588000Y2921000D01*
Y3048000D01*
G01X5842000Y2286000D02*
Y2857500D01*
X5715000Y2984500D01*
Y3238400D01*
X5461000Y3492400D01*
Y4127500D01*
X5334000Y4254500D01*
Y4826000D01*
G01X5588000Y3048000D02*
Y3188500D01*
X5538000Y3238500D01*
X5066900D01*
X4953400Y3352000D01*
Y4572400D01*
X5080000Y4699000D01*
Y4826000D01*
G01X7874000Y3810000D02*
Y4318000D01*
X7747000Y4445000D01*
X5511400D01*
X5461400Y4495000D01*
Y4825600D01*
X5461000Y4826000D01*
X5334000D01*
G01X5080000Y6096000D02*
Y5892000D01*
X5130000Y5842000D01*
X5728500D01*
X5778500Y5792000D01*
Y5066500D01*
X5728500Y5016500D01*
X5143500D01*
X5080000Y4953000D01*
Y4826000D01*
M02*
