G04 ================== begin FILE IDENTIFICATION RECORD ==================*
G04 Layout Name:  C:/USERS/USER/DESKTOP/EX/OSCILLATOR/allegro/OSCILLATOR.brd*
G04 Film Name:    DrillDraw*
G04 File Format:  Gerber RS274X*
G04 File Origin:  Cadence Allegro 17.2-P019*
G04 Origin Date:  Thu Aug 01 11:30:56 2019*
G04 *
G04 Layer:  MANUFACTURING/NCLEGEND-1-2*
G04 Layer:  BOARD GEOMETRY/OUTLINE*
G04 Layer:  BOARD GEOMETRY/DESIGN_OUTLINE*
G04 *
G04 Offset:    (0.000 0.000)*
G04 Mirror:    No*
G04 Mode:      Positive*
G04 Rotation:  0*
G04 FullContactRelief:  No*
G04 UndefLineWidth:     0.000*
G04 ================== end FILE IDENTIFICATION RECORD ====================*
%FSLAX25Y25*MOIN*%
%IR0*IPPOS*OFA0.00000B0.00000*MIA0B0*SFA1.00000B1.00000*%
%AMMACRO13*
1,1,0.0,.027008,0.0*
20,1,0.0,.027008,0.0,.026598,-.00469,0.0*
1,1,0.0,.026598,-.00469*
20,1,0.0,.026598,-.00469,.025379,-.009237,0.0*
1,1,0.0,.025379,-.009237*
20,1,0.0,.025379,-.009237,.02339,-.013504,0.0*
1,1,0.0,.02339,-.013504*
20,1,0.0,.02339,-.013504,.020689,-.01736,0.0*
1,1,0.0,.020689,-.01736*
20,1,0.0,.020689,-.01736,.01736,-.020689,0.0*
1,1,0.0,.01736,-.020689*
20,1,0.0,.01736,-.020689,.013504,-.02339,0.0*
1,1,0.0,.013504,-.02339*
20,1,0.0,.013504,-.02339,.009237,-.025379,0.0*
1,1,0.0,.009237,-.025379*
20,1,0.0,.009237,-.025379,.00469,-.026598,0.0*
1,1,0.0,.00469,-.026598*
20,1,0.0,.00469,-.026598,0.0,-.027008,0.0*
1,1,0.0,0.0,-.027008*
20,1,0.0,0.0,-.027008,-.00469,-.026598,0.0*
1,1,0.0,-.00469,-.026598*
20,1,0.0,-.00469,-.026598,-.009237,-.025379,0.0*
1,1,0.0,-.009237,-.025379*
20,1,0.0,-.009237,-.025379,-.013504,-.02339,0.0*
1,1,0.0,-.013504,-.02339*
20,1,0.0,-.013504,-.02339,-.01736,-.020689,0.0*
1,1,0.0,-.01736,-.020689*
20,1,0.0,-.01736,-.020689,-.020689,-.01736,0.0*
1,1,0.0,-.020689,-.01736*
20,1,0.0,-.020689,-.01736,-.02339,-.013504,0.0*
1,1,0.0,-.02339,-.013504*
20,1,0.0,-.02339,-.013504,-.025379,-.009237,0.0*
1,1,0.0,-.025379,-.009237*
20,1,0.0,-.025379,-.009237,-.026598,-.00469,0.0*
1,1,0.0,-.026598,-.00469*
20,1,0.0,-.026598,-.00469,-.027008,0.0,0.0*
1,1,0.0,-.027008,0.0*
20,1,0.0,-.027008,0.0,-.026598,.00469,0.0*
1,1,0.0,-.026598,.00469*
20,1,0.0,-.026598,.00469,-.025379,.009237,0.0*
1,1,0.0,-.025379,.009237*
20,1,0.0,-.025379,.009237,-.02339,.013504,0.0*
1,1,0.0,-.02339,.013504*
20,1,0.0,-.02339,.013504,-.020689,.01736,0.0*
1,1,0.0,-.020689,.01736*
20,1,0.0,-.020689,.01736,-.01736,.020689,0.0*
1,1,0.0,-.01736,.020689*
20,1,0.0,-.01736,.020689,-.013504,.02339,0.0*
1,1,0.0,-.013504,.02339*
20,1,0.0,-.013504,.02339,-.009237,.025379,0.0*
1,1,0.0,-.009237,.025379*
20,1,0.0,-.009237,.025379,-.00469,.026598,0.0*
1,1,0.0,-.00469,.026598*
20,1,0.0,-.00469,.026598,0.0,.027008,0.0*
1,1,0.0,0.0,.027008*
20,1,0.0,0.0,.027008,.00469,.026598,0.0*
1,1,0.0,.00469,.026598*
20,1,0.0,.00469,.026598,.009237,.025379,0.0*
1,1,0.0,.009237,.025379*
20,1,0.0,.009237,.025379,.013504,.02339,0.0*
1,1,0.0,.013504,.02339*
20,1,0.0,.013504,.02339,.01736,.020689,0.0*
1,1,0.0,.01736,.020689*
20,1,0.0,.01736,.020689,.020689,.01736,0.0*
1,1,0.0,.020689,.01736*
20,1,0.0,.020689,.01736,.02339,.013504,0.0*
1,1,0.0,.02339,.013504*
20,1,0.0,.02339,.013504,.025379,.009237,0.0*
1,1,0.0,.025379,.009237*
20,1,0.0,.025379,.009237,.026598,.00469,0.0*
1,1,0.0,.026598,.00469*
20,1,0.0,.026598,.00469,.027008,0.0,0.0*
1,1,0.0,.027008,0.0*
1,1,0.0,-.01126,-.013504*
20,1,0.0,-.01126,-.013504,0.0,.013504,0.0*
1,1,0.0,0.0,.013504*
20,1,0.0,0.0,.013504,.01126,-.013504,0.0*
1,1,0.0,.01126,-.013504*
1,1,0.0,.007205,-.004055*
20,1,0.0,.007205,-.004055,-.007205,-.004055,0.0*
1,1,0.0,-.007205,-.004055*
%
%ADD13MACRO13*%
%AMMACRO12*
1,1,0.0,-.02,.0125*
20,1,0.0,-.02,.0125,-.019696,.015973,0.0*
1,1,0.0,-.019696,.015973*
20,1,0.0,-.019696,.015973,-.018794,.01934,0.0*
1,1,0.0,-.018794,.01934*
20,1,0.0,-.018794,.01934,-.017321,.0225,0.0*
1,1,0.0,-.017321,.0225*
20,1,0.0,-.017321,.0225,-.015321,.025356,0.0*
1,1,0.0,-.015321,.025356*
20,1,0.0,-.015321,.025356,-.012856,.027821,0.0*
1,1,0.0,-.012856,.027821*
20,1,0.0,-.012856,.027821,-.01,.029821,0.0*
1,1,0.0,-.01,.029821*
20,1,0.0,-.01,.029821,-.00684,.031294,0.0*
1,1,0.0,-.00684,.031294*
20,1,0.0,-.00684,.031294,-.003473,.032196,0.0*
1,1,0.0,-.003473,.032196*
20,1,0.0,-.003473,.032196,0.0,.0325,0.0*
1,1,0.0,0.0,.0325*
20,1,0.0,0.0,.0325,.003473,.032196,0.0*
1,1,0.0,.003473,.032196*
20,1,0.0,.003473,.032196,.00684,.031294,0.0*
1,1,0.0,.00684,.031294*
20,1,0.0,.00684,.031294,.01,.029821,0.0*
1,1,0.0,.01,.029821*
20,1,0.0,.01,.029821,.012856,.027821,0.0*
1,1,0.0,.012856,.027821*
20,1,0.0,.012856,.027821,.015321,.025356,0.0*
1,1,0.0,.015321,.025356*
20,1,0.0,.015321,.025356,.017321,.0225,0.0*
1,1,0.0,.017321,.0225*
20,1,0.0,.017321,.0225,.018794,.01934,0.0*
1,1,0.0,.018794,.01934*
20,1,0.0,.018794,.01934,.019696,.015973,0.0*
1,1,0.0,.019696,.015973*
20,1,0.0,.019696,.015973,.02,.0125,0.0*
1,1,0.0,.02,.0125*
20,1,0.0,.02,.0125,.02,-.0125,0.0*
1,1,0.0,.02,-.0125*
20,1,0.0,.02,-.0125,.019696,-.015973,0.0*
1,1,0.0,.019696,-.015973*
20,1,0.0,.019696,-.015973,.018794,-.01934,0.0*
1,1,0.0,.018794,-.01934*
20,1,0.0,.018794,-.01934,.017321,-.0225,0.0*
1,1,0.0,.017321,-.0225*
20,1,0.0,.017321,-.0225,.015321,-.025356,0.0*
1,1,0.0,.015321,-.025356*
20,1,0.0,.015321,-.025356,.012856,-.027821,0.0*
1,1,0.0,.012856,-.027821*
20,1,0.0,.012856,-.027821,.01,-.029821,0.0*
1,1,0.0,.01,-.029821*
20,1,0.0,.01,-.029821,.00684,-.031294,0.0*
1,1,0.0,.00684,-.031294*
20,1,0.0,.00684,-.031294,.003473,-.032196,0.0*
1,1,0.0,.003473,-.032196*
20,1,0.0,.003473,-.032196,0.0,-.0325,0.0*
1,1,0.0,0.0,-.0325*
20,1,0.0,0.0,-.0325,-.003473,-.032196,0.0*
1,1,0.0,-.003473,-.032196*
20,1,0.0,-.003473,-.032196,-.00684,-.031294,0.0*
1,1,0.0,-.00684,-.031294*
20,1,0.0,-.00684,-.031294,-.01,-.029821,0.0*
1,1,0.0,-.01,-.029821*
20,1,0.0,-.01,-.029821,-.012856,-.027821,0.0*
1,1,0.0,-.012856,-.027821*
20,1,0.0,-.012856,-.027821,-.015321,-.025356,0.0*
1,1,0.0,-.015321,-.025356*
20,1,0.0,-.015321,-.025356,-.017321,-.0225,0.0*
1,1,0.0,-.017321,-.0225*
20,1,0.0,-.017321,-.0225,-.018794,-.01934,0.0*
1,1,0.0,-.018794,-.01934*
20,1,0.0,-.018794,-.01934,-.019696,-.015973,0.0*
1,1,0.0,-.019696,-.015973*
20,1,0.0,-.019696,-.015973,-.02,-.0125,0.0*
1,1,0.0,-.02,-.0125*
20,1,0.0,-.02,-.0125,-.02,.0125,0.0*
1,1,0.0,-.02,.0125*
%
%ADD12MACRO12*%
%AMMACRO11*
1,1,0.0,.025,0.0*
20,1,0.0,.025,0.0,.0125,.021651,0.0*
1,1,0.0,.0125,.021651*
20,1,0.0,.0125,.021651,-.0125,.021651,0.0*
1,1,0.0,-.0125,.021651*
20,1,0.0,-.0125,.021651,-.025,0.0,0.0*
1,1,0.0,-.025,0.0*
20,1,0.0,-.025,0.0,-.0125,-.021651,0.0*
1,1,0.0,-.0125,-.021651*
20,1,0.0,-.0125,-.021651,.0125,-.021651,0.0*
1,1,0.0,.0125,-.021651*
20,1,0.0,.0125,-.021651,.025,0.0,0.0*
1,1,0.0,.025,0.0*
%
%ADD11MACRO11*%
%AMMACRO10*
1,1,0.0,-.02622,-.03748*
20,1,0.0,-.02622,-.03748,.02626,.03752,0.0*
1,1,0.0,.02626,.03752*
1,1,0.0,-.02622,.03752*
20,1,0.0,-.02622,.03752,.02626,-.03748,0.0*
1,1,0.0,.02626,-.03748*
%
%ADD10MACRO10*%
%LPD*%
G75*
G54D10*
X19685Y19685D03*
Y255906D03*
X374016Y19685D03*
Y255906D03*
X457441Y16909D03*
G54D11*
X19685Y137480D03*
Y147480D03*
Y157480D03*
X60000Y50000D03*
Y60000D03*
Y90000D03*
Y100000D03*
Y220000D03*
X70000Y230000D03*
X80000Y220000D03*
X110000Y180000D03*
Y190000D03*
X150000Y50000D03*
Y60000D03*
Y90000D03*
X140000D03*
X180000Y100000D03*
Y90000D03*
X190000Y160000D03*
Y190000D03*
Y210000D03*
Y240000D03*
X220000Y40000D03*
X210000D03*
X220000Y70000D03*
X210000D03*
X220000Y90000D03*
X210000D03*
X220000Y120000D03*
X210000D03*
X220000Y160000D03*
X210000D03*
X200000D03*
X220000Y190000D03*
X210000D03*
X200000D03*
X220000Y210000D03*
X210000D03*
X200000D03*
X220000Y240000D03*
X210000D03*
X200000D03*
X240000Y40000D03*
X230000D03*
X240000Y70000D03*
X230000D03*
X240000Y90000D03*
X230000D03*
X240000Y120000D03*
X230000D03*
X374016Y147795D03*
Y137795D03*
X457441Y91909D03*
G54D12*
X60000Y160000D03*
Y200000D03*
X80000Y160000D03*
Y200000D03*
X130000Y160000D03*
Y200000D03*
X150000Y160000D03*
Y200000D03*
X170000Y160000D03*
Y200000D03*
X270000Y110000D03*
Y150000D03*
X290000Y110000D03*
X310000D03*
X290000Y150000D03*
X310000D03*
X330000Y110000D03*
Y150000D03*
X350000Y110000D03*
Y150000D03*
X457441Y66909D03*
G54D13*
X100000Y50000D03*
X90000Y90000D03*
X100000D03*
X110000Y50000D03*
X120000D03*
X110000Y90000D03*
X457441Y41909D03*
M02*
