G04 ================== begin FILE IDENTIFICATION RECORD ==================*
G04 Layout Name:  C:/USERS/USER/DESKTOP/EX/OSCILLATOR/allegro/OSCILLATOR.brd*
G04 Film Name:    DrillDraw*
G04 File Format:  Gerber RS274X*
G04 File Origin:  Cadence Allegro 17.2-P019*
G04 Origin Date:  Thu Aug 01 11:31:07 2019*
G04 *
G04 Layer:  MANUFACTURING/NCLEGEND-1-2*
G04 Layer:  BOARD GEOMETRY/OUTLINE*
G04 Layer:  BOARD GEOMETRY/DESIGN_OUTLINE*
G04 *
G04 Offset:    (0.000 0.000)*
G04 Mirror:    No*
G04 Mode:      Positive*
G04 Rotation:  0*
G04 FullContactRelief:  No*
G04 UndefLineWidth:     0.000*
G04 ================== end FILE IDENTIFICATION RECORD ====================*
%FSLAX25Y25*MOMM*%
%IR0*IPPOS*OFA0.00000B0.00000*MIA0B0*SFA1.00000B1.00000*%
%AMMACRO13*
1,1,0.0,.686,0.0*
20,1,0.0,.686,0.0,.675578,-.119123,0.0*
1,1,0.0,.675578,-.119123*
20,1,0.0,.675578,-.119123,.644629,-.234626,0.0*
1,1,0.0,.644629,-.234626*
20,1,0.0,.644629,-.234626,.594093,-.343,0.0*
1,1,0.0,.594093,-.343*
20,1,0.0,.594093,-.343,.525506,-.440952,0.0*
1,1,0.0,.525506,-.440952*
20,1,0.0,.525506,-.440952,.440952,-.525506,0.0*
1,1,0.0,.440952,-.525506*
20,1,0.0,.440952,-.525506,.343,-.594093,0.0*
1,1,0.0,.343,-.594093*
20,1,0.0,.343,-.594093,.234626,-.644629,0.0*
1,1,0.0,.234626,-.644629*
20,1,0.0,.234626,-.644629,.119123,-.675578,0.0*
1,1,0.0,.119123,-.675578*
20,1,0.0,.119123,-.675578,0.0,-.686,0.0*
1,1,0.0,0.0,-.686*
20,1,0.0,0.0,-.686,-.119123,-.675578,0.0*
1,1,0.0,-.119123,-.675578*
20,1,0.0,-.119123,-.675578,-.234626,-.644629,0.0*
1,1,0.0,-.234626,-.644629*
20,1,0.0,-.234626,-.644629,-.343,-.594093,0.0*
1,1,0.0,-.343,-.594093*
20,1,0.0,-.343,-.594093,-.440952,-.525506,0.0*
1,1,0.0,-.440952,-.525506*
20,1,0.0,-.440952,-.525506,-.525506,-.440952,0.0*
1,1,0.0,-.525506,-.440952*
20,1,0.0,-.525506,-.440952,-.594093,-.343,0.0*
1,1,0.0,-.594093,-.343*
20,1,0.0,-.594093,-.343,-.644629,-.234626,0.0*
1,1,0.0,-.644629,-.234626*
20,1,0.0,-.644629,-.234626,-.675578,-.119123,0.0*
1,1,0.0,-.675578,-.119123*
20,1,0.0,-.675578,-.119123,-.686,0.0,0.0*
1,1,0.0,-.686,0.0*
20,1,0.0,-.686,0.0,-.675578,.119123,0.0*
1,1,0.0,-.675578,.119123*
20,1,0.0,-.675578,.119123,-.644629,.234626,0.0*
1,1,0.0,-.644629,.234626*
20,1,0.0,-.644629,.234626,-.594093,.343,0.0*
1,1,0.0,-.594093,.343*
20,1,0.0,-.594093,.343,-.525506,.440952,0.0*
1,1,0.0,-.525506,.440952*
20,1,0.0,-.525506,.440952,-.440952,.525506,0.0*
1,1,0.0,-.440952,.525506*
20,1,0.0,-.440952,.525506,-.343,.594093,0.0*
1,1,0.0,-.343,.594093*
20,1,0.0,-.343,.594093,-.234626,.644629,0.0*
1,1,0.0,-.234626,.644629*
20,1,0.0,-.234626,.644629,-.119123,.675578,0.0*
1,1,0.0,-.119123,.675578*
20,1,0.0,-.119123,.675578,0.0,.686,0.0*
1,1,0.0,0.0,.686*
20,1,0.0,0.0,.686,.119123,.675578,0.0*
1,1,0.0,.119123,.675578*
20,1,0.0,.119123,.675578,.234626,.644629,0.0*
1,1,0.0,.234626,.644629*
20,1,0.0,.234626,.644629,.343,.594093,0.0*
1,1,0.0,.343,.594093*
20,1,0.0,.343,.594093,.440952,.525506,0.0*
1,1,0.0,.440952,.525506*
20,1,0.0,.440952,.525506,.525506,.440952,0.0*
1,1,0.0,.525506,.440952*
20,1,0.0,.525506,.440952,.594093,.343,0.0*
1,1,0.0,.594093,.343*
20,1,0.0,.594093,.343,.644629,.234626,0.0*
1,1,0.0,.644629,.234626*
20,1,0.0,.644629,.234626,.675578,.119123,0.0*
1,1,0.0,.675578,.119123*
20,1,0.0,.675578,.119123,.686,0.0,0.0*
1,1,0.0,.686,0.0*
1,1,0.0,-.286,-.343*
20,1,0.0,-.286,-.343,0.0,.343,0.0*
1,1,0.0,0.0,.343*
20,1,0.0,0.0,.343,.286,-.343,0.0*
1,1,0.0,.286,-.343*
1,1,0.0,.183,-.103*
20,1,0.0,.183,-.103,-.183,-.103,0.0*
1,1,0.0,-.183,-.103*
%
%ADD13MACRO13*%
%AMMACRO12*
1,1,0.0,-.508,.3175*
20,1,0.0,-.508,.3175,-.500282,.405713,0.0*
1,1,0.0,-.500282,.405713*
20,1,0.0,-.500282,.405713,-.477364,.491246,0.0*
1,1,0.0,-.477364,.491246*
20,1,0.0,-.477364,.491246,-.439941,.5715,0.0*
1,1,0.0,-.439941,.5715*
20,1,0.0,-.439941,.5715,-.389151,.644036,0.0*
1,1,0.0,-.389151,.644036*
20,1,0.0,-.389151,.644036,-.326536,.706651,0.0*
1,1,0.0,-.326536,.706651*
20,1,0.0,-.326536,.706651,-.254,.757441,0.0*
1,1,0.0,-.254,.757441*
20,1,0.0,-.254,.757441,-.173746,.794864,0.0*
1,1,0.0,-.173746,.794864*
20,1,0.0,-.173746,.794864,-.088213,.817782,0.0*
1,1,0.0,-.088213,.817782*
20,1,0.0,-.088213,.817782,0.0,.8255,0.0*
1,1,0.0,0.0,.8255*
20,1,0.0,0.0,.8255,.088213,.817782,0.0*
1,1,0.0,.088213,.817782*
20,1,0.0,.088213,.817782,.173746,.794864,0.0*
1,1,0.0,.173746,.794864*
20,1,0.0,.173746,.794864,.254,.757441,0.0*
1,1,0.0,.254,.757441*
20,1,0.0,.254,.757441,.326536,.706651,0.0*
1,1,0.0,.326536,.706651*
20,1,0.0,.326536,.706651,.389151,.644036,0.0*
1,1,0.0,.389151,.644036*
20,1,0.0,.389151,.644036,.439941,.5715,0.0*
1,1,0.0,.439941,.5715*
20,1,0.0,.439941,.5715,.477364,.491246,0.0*
1,1,0.0,.477364,.491246*
20,1,0.0,.477364,.491246,.500282,.405713,0.0*
1,1,0.0,.500282,.405713*
20,1,0.0,.500282,.405713,.508,.3175,0.0*
1,1,0.0,.508,.3175*
20,1,0.0,.508,.3175,.508,-.3175,0.0*
1,1,0.0,.508,-.3175*
20,1,0.0,.508,-.3175,.500282,-.405713,0.0*
1,1,0.0,.500282,-.405713*
20,1,0.0,.500282,-.405713,.477364,-.491246,0.0*
1,1,0.0,.477364,-.491246*
20,1,0.0,.477364,-.491246,.439941,-.5715,0.0*
1,1,0.0,.439941,-.5715*
20,1,0.0,.439941,-.5715,.389151,-.644036,0.0*
1,1,0.0,.389151,-.644036*
20,1,0.0,.389151,-.644036,.326536,-.706651,0.0*
1,1,0.0,.326536,-.706651*
20,1,0.0,.326536,-.706651,.254,-.757441,0.0*
1,1,0.0,.254,-.757441*
20,1,0.0,.254,-.757441,.173746,-.794864,0.0*
1,1,0.0,.173746,-.794864*
20,1,0.0,.173746,-.794864,.088213,-.817782,0.0*
1,1,0.0,.088213,-.817782*
20,1,0.0,.088213,-.817782,0.0,-.8255,0.0*
1,1,0.0,0.0,-.8255*
20,1,0.0,0.0,-.8255,-.088213,-.817782,0.0*
1,1,0.0,-.088213,-.817782*
20,1,0.0,-.088213,-.817782,-.173746,-.794864,0.0*
1,1,0.0,-.173746,-.794864*
20,1,0.0,-.173746,-.794864,-.254,-.757441,0.0*
1,1,0.0,-.254,-.757441*
20,1,0.0,-.254,-.757441,-.326536,-.706651,0.0*
1,1,0.0,-.326536,-.706651*
20,1,0.0,-.326536,-.706651,-.389151,-.644036,0.0*
1,1,0.0,-.389151,-.644036*
20,1,0.0,-.389151,-.644036,-.439941,-.5715,0.0*
1,1,0.0,-.439941,-.5715*
20,1,0.0,-.439941,-.5715,-.477364,-.491246,0.0*
1,1,0.0,-.477364,-.491246*
20,1,0.0,-.477364,-.491246,-.500282,-.405713,0.0*
1,1,0.0,-.500282,-.405713*
20,1,0.0,-.500282,-.405713,-.508,-.3175,0.0*
1,1,0.0,-.508,-.3175*
20,1,0.0,-.508,-.3175,-.508,.3175,0.0*
1,1,0.0,-.508,.3175*
%
%ADD12MACRO12*%
%AMMACRO11*
1,1,0.0,.635,0.0*
20,1,0.0,.635,0.0,.3175,.549926,0.0*
1,1,0.0,.3175,.549926*
20,1,0.0,.3175,.549926,-.3175,.549926,0.0*
1,1,0.0,-.3175,.549926*
20,1,0.0,-.3175,.549926,-.635,0.0,0.0*
1,1,0.0,-.635,0.0*
20,1,0.0,-.635,0.0,-.3175,-.549926,0.0*
1,1,0.0,-.3175,-.549926*
20,1,0.0,-.3175,-.549926,.3175,-.549926,0.0*
1,1,0.0,.3175,-.549926*
20,1,0.0,.3175,-.549926,.635,0.0,0.0*
1,1,0.0,.635,0.0*
%
%ADD11MACRO11*%
%AMMACRO10*
1,1,0.0,-.666,-.952*
20,1,0.0,-.666,-.952,.667,.953,0.0*
1,1,0.0,.667,.953*
1,1,0.0,-.666,.953*
20,1,0.0,-.666,.953,.667,-.952,0.0*
1,1,0.0,.667,-.952*
%
%ADD10MACRO10*%
%LPD*%
G75*
G54D10*
X500000Y500000D03*
Y6500000D03*
X9500000Y500000D03*
Y6500000D03*
X11619000Y429500D03*
G54D11*
X500000Y3492000D03*
Y3746000D03*
Y4000000D03*
X1524000Y1270000D03*
Y1524000D03*
Y2286000D03*
Y2540000D03*
Y5588000D03*
X1778000Y5842000D03*
X2032000Y5588000D03*
X2794000Y4572000D03*
Y4826000D03*
X3810000Y1270000D03*
Y1524000D03*
Y2286000D03*
X3556000D03*
X4572000Y2540000D03*
Y2286000D03*
X4826000Y4064000D03*
Y4826000D03*
Y5334000D03*
Y6096000D03*
X5588000Y1016000D03*
X5334000D03*
X5588000Y1778000D03*
X5334000D03*
X5588000Y2286000D03*
X5334000D03*
X5588000Y3048000D03*
X5334000D03*
X5588000Y4064000D03*
X5334000D03*
X5080000D03*
X5588000Y4826000D03*
X5334000D03*
X5080000D03*
X5588000Y5334000D03*
X5334000D03*
X5080000D03*
X5588000Y6096000D03*
X5334000D03*
X5080000D03*
X6096000Y1016000D03*
X5842000D03*
X6096000Y1778000D03*
X5842000D03*
X6096000Y2286000D03*
X5842000D03*
X6096000Y3048000D03*
X5842000D03*
X9500000Y3754000D03*
Y3500000D03*
X11619000Y2334500D03*
G54D12*
X1524000Y4064000D03*
Y5080000D03*
X2032000Y4064000D03*
Y5080000D03*
X3302000Y4064000D03*
Y5080000D03*
X3810000Y4064000D03*
Y5080000D03*
X4318000Y4064000D03*
Y5080000D03*
X6858000Y2794000D03*
Y3810000D03*
X7366000Y2794000D03*
X7874000D03*
X7366000Y3810000D03*
X7874000D03*
X8382000Y2794000D03*
Y3810000D03*
X8890000Y2794000D03*
Y3810000D03*
X11619000Y1699500D03*
G54D13*
X2540000Y1270000D03*
X2286000Y2286000D03*
X2540000D03*
X2794000Y1270000D03*
X3048000D03*
X2794000Y2286000D03*
X11619000Y1064500D03*
M02*
