G04 ================== begin FILE IDENTIFICATION RECORD ==================*
G04 Layout Name:  C:/USERS/USER/DESKTOP/EX/OSCILLATOR/allegro/OSCILLATOR.brd*
G04 Film Name:    Silkt*
G04 File Format:  Gerber RS274X*
G04 File Origin:  Cadence Allegro 17.2-P019*
G04 Origin Date:  Thu Aug 01 11:31:07 2019*
G04 *
G04 Layer:  REF DES/SILKSCREEN_TOP*
G04 Layer:  PACKAGE GEOMETRY/SILKSCREEN_TOP*
G04 Layer:  BOARD GEOMETRY/SILKSCREEN_TOP*
G04 *
G04 Offset:    (0.000 0.000)*
G04 Mirror:    No*
G04 Mode:      Positive*
G04 Rotation:  0*
G04 FullContactRelief:  No*
G04 UndefLineWidth:     0.200*
G04 ================== end FILE IDENTIFICATION RECORD ====================*
%FSLAX25Y25*MOMM*%
%IR0*IPPOS*OFA0.00000B0.00000*MIA0B0*SFA1.00000B1.00000*%
%ADD10C,.203*%
%ADD11C,.2*%
G75*
%LPD*%
G75*
G54D10*
G01X2260600Y1562100D02*
Y990600D01*
G01D02*
X3327400D01*
G01Y1562100D02*
X2260600D01*
G01Y1422400D02*
X3327400D01*
G01X2006600Y2578100D02*
Y2006600D01*
G01D02*
X3073400D01*
G01Y2578100D02*
X2006600D01*
G01Y2438400D02*
X3073400D01*
G01X3327400Y990600D02*
Y1562100D01*
G01X3073400Y2006600D02*
Y2578100D01*
G54D11*
G01X373000Y4127000D02*
X627000D01*
Y3365000D01*
X373000D01*
Y4127000D01*
G01X385600Y4143200D02*
X390500Y4135400D01*
X396300Y4130100D01*
X403200Y4127500D01*
X410900Y4130100D01*
X416800Y4135400D01*
X422600Y4143200D01*
X424600Y4153700D01*
Y4206200D01*
G01X465300Y4193100D02*
X471100Y4201000D01*
X478000Y4204900D01*
X485700Y4206200D01*
X495500Y4203600D01*
X502300Y4197000D01*
X504200Y4189100D01*
X503300Y4181300D01*
X499400Y4174700D01*
X479900Y4161600D01*
X471100Y4152400D01*
X465300Y4139300D01*
X463400Y4127500D01*
X504200D01*
G01X1367600Y1703900D02*
X1358000Y1710300D01*
X1346700Y1714500D01*
X1333900D01*
X1319400Y1708100D01*
X1308100Y1697600D01*
X1300100Y1684900D01*
X1293600Y1663700D01*
X1292000Y1644600D01*
X1295300Y1625600D01*
X1300100Y1612900D01*
X1309700Y1600200D01*
X1321000Y1591700D01*
X1332200Y1587500D01*
X1343500D01*
X1354800Y1591700D01*
X1364400Y1598100D01*
X1372500Y1606500D01*
G01X1426400D02*
X1436000Y1596000D01*
X1447300Y1589600D01*
X1461700Y1587500D01*
X1476200Y1591700D01*
X1487500Y1600200D01*
X1495500Y1615000D01*
X1497100Y1631900D01*
X1493900Y1648900D01*
X1485900Y1659500D01*
X1474600Y1667900D01*
X1463400Y1670000D01*
X1452100Y1667900D01*
X1437600Y1659500D01*
X1442400Y1714500D01*
X1485900D01*
G01X1778000Y1397000D02*
G03I-254000J0D01*
G01X1431100Y2719900D02*
X1421500Y2726300D01*
X1410200Y2730500D01*
X1397400D01*
X1382900Y2724100D01*
X1371600Y2713600D01*
X1363600Y2700900D01*
X1357100Y2679700D01*
X1355500Y2660600D01*
X1358800Y2641600D01*
X1363600Y2628900D01*
X1373200Y2616200D01*
X1384500Y2607700D01*
X1395700Y2603500D01*
X1407000D01*
X1418300Y2607700D01*
X1427900Y2614100D01*
X1436000Y2622500D01*
G01X1489900Y2628900D02*
X1499500Y2614100D01*
X1512400Y2605600D01*
X1526900Y2603500D01*
X1539700Y2605600D01*
X1552600Y2616200D01*
X1560600Y2628900D01*
X1562200Y2641600D01*
X1559000Y2656400D01*
X1547800Y2667000D01*
X1536500Y2671200D01*
X1522000D01*
G01X1536500D02*
X1546200Y2677600D01*
X1554200Y2688200D01*
X1557400Y2700900D01*
X1554200Y2713600D01*
X1546200Y2724100D01*
X1531700Y2730500D01*
X1517200Y2728400D01*
X1502700Y2719900D01*
G01X1778000Y2413000D02*
G03I-254000J0D01*
G01X1397000Y4216400D02*
Y4927600D01*
X1651000D01*
Y4216400D01*
X1397000D01*
G01X1846100Y4953000D02*
Y5031700D01*
X1870500D01*
X1878300Y5027800D01*
X1883100Y5022500D01*
X1885100Y5012000D01*
X1883100Y5001500D01*
X1877300Y4995000D01*
X1870500Y4991000D01*
X1846100D01*
G01X1870500D02*
X1885100Y4953000D01*
G01X1944300D02*
Y5031700D01*
X1932600Y5016000D01*
G01Y4953000D02*
X1956000D01*
G01X1274600D02*
Y5031700D01*
X1299000D01*
X1306800Y5027800D01*
X1311600Y5022500D01*
X1313600Y5012000D01*
X1311600Y5001500D01*
X1305800Y4995000D01*
X1299000Y4991000D01*
X1274600D01*
G01X1299000D02*
X1313600Y4953000D01*
G01X1372800D02*
X1379600Y4954300D01*
X1387400Y4958200D01*
X1392300Y4964800D01*
X1394200Y4974000D01*
X1392300Y4983200D01*
X1386400Y4991000D01*
X1377700Y4995000D01*
X1367900D01*
X1362100Y4997600D01*
X1357200Y5004200D01*
X1355300Y5013300D01*
X1358200Y5022500D01*
X1365000Y5029100D01*
X1372800Y5031700D01*
X1380600Y5029100D01*
X1387400Y5022500D01*
X1390300Y5013300D01*
X1388400Y5004200D01*
X1383500Y4997600D01*
X1377700Y4995000D01*
X1367900D01*
X1359200Y4991000D01*
X1353300Y4983200D01*
X1351400Y4974000D01*
X1353300Y4964800D01*
X1358200Y4958200D01*
X1366000Y4954300D01*
X1372800Y4953000D01*
G01X1460500Y5969000D02*
X2095500D01*
Y5461000D01*
X1460500D01*
Y5969000D01*
G01X1481200Y6032500D02*
X1521400Y5905500D01*
X1561700Y6032500D01*
G01X1618800Y5905500D02*
Y6032500D01*
X1659000D01*
X1671900Y6026100D01*
X1679900Y6017700D01*
X1683100Y6000700D01*
X1679900Y5983800D01*
X1670300Y5973200D01*
X1659000Y5966900D01*
X1618800D01*
G01X1659000D02*
X1683100Y5905500D01*
G01X1780400D02*
Y6032500D01*
X1761100Y6007100D01*
G01Y5905500D02*
X1799700D01*
G01X2305000Y1651000D02*
Y1514500D01*
X2314400Y1485900D01*
X2333400Y1466800D01*
X2357100Y1460500D01*
X2380800Y1466800D01*
X2399800Y1485900D01*
X2409200Y1514500D01*
Y1651000D01*
G01X2502600Y1539900D02*
X2519200Y1562100D01*
X2533400Y1574800D01*
X2552300Y1581100D01*
X2568900Y1574800D01*
X2580800Y1562100D01*
X2590300Y1543000D01*
X2592600Y1520800D01*
X2590300Y1501800D01*
X2580800Y1482700D01*
X2566600Y1466800D01*
X2550000Y1460500D01*
X2531000Y1466800D01*
X2514400Y1485900D01*
X2504900Y1514500D01*
X2502600Y1546200D01*
X2507300Y1587500D01*
X2514400Y1609700D01*
X2526300Y1631900D01*
X2542900Y1647800D01*
X2559400Y1651000D01*
X2576000Y1644700D01*
X2587900Y1628800D01*
G01X1987500Y2794000D02*
Y2657500D01*
X1996900Y2628900D01*
X2015900Y2609800D01*
X2039600Y2603500D01*
X2063300Y2609800D01*
X2082300Y2628900D01*
X2091700Y2657500D01*
Y2794000D01*
G01X2178000Y2632100D02*
X2192200Y2616200D01*
X2208800Y2606700D01*
X2230100Y2603500D01*
X2251400Y2609800D01*
X2268000Y2622500D01*
X2279900Y2644800D01*
X2282200Y2670200D01*
X2277500Y2695600D01*
X2265600Y2711500D01*
X2249100Y2724100D01*
X2232500Y2727300D01*
X2215900Y2724100D01*
X2194600Y2711500D01*
X2201700Y2794000D01*
X2265600D01*
G01X3048000Y4699000D02*
G03I-254000J0D01*
G01X1905000Y4216400D02*
Y4927600D01*
X2159000D01*
Y4216400D01*
X1905000D01*
G01X2701100Y5069400D02*
X2691500Y5075800D01*
X2680200Y5080000D01*
X2667400D01*
X2652900Y5073600D01*
X2641600Y5063100D01*
X2633600Y5050400D01*
X2627100Y5029200D01*
X2625500Y5010100D01*
X2628800Y4991100D01*
X2633600Y4978400D01*
X2643200Y4965700D01*
X2654500Y4957200D01*
X2665700Y4953000D01*
X2677000D01*
X2688300Y4957200D01*
X2697900Y4963600D01*
X2706000Y4972000D01*
G01X2795200Y4953000D02*
Y5080000D01*
X2775900Y5054600D01*
G01Y4953000D02*
X2814500D01*
G01X3463100Y2592900D02*
X3453500Y2599300D01*
X3442200Y2603500D01*
X3429400D01*
X3414900Y2597100D01*
X3403600Y2586600D01*
X3395600Y2573900D01*
X3389100Y2552700D01*
X3387500Y2533600D01*
X3390800Y2514600D01*
X3395600Y2501900D01*
X3405200Y2489200D01*
X3416500Y2480700D01*
X3427700Y2476500D01*
X3439000D01*
X3450300Y2480700D01*
X3459900Y2487100D01*
X3468000Y2495500D01*
G01X3576600Y2476500D02*
Y2603500D01*
X3517000Y2512500D01*
X3597500D01*
G01X3116100Y4889500D02*
Y4968200D01*
X3140500D01*
X3148300Y4964300D01*
X3153100Y4959000D01*
X3155100Y4948500D01*
X3153100Y4938000D01*
X3147300Y4931500D01*
X3140500Y4927500D01*
X3116100D01*
G01X3140500D02*
X3155100Y4889500D01*
G01X3195800Y4955100D02*
X3201600Y4963000D01*
X3208500Y4966900D01*
X3216200Y4968200D01*
X3226000Y4965600D01*
X3232800Y4959000D01*
X3234700Y4951100D01*
X3233800Y4943300D01*
X3229900Y4936700D01*
X3210400Y4923600D01*
X3201600Y4914400D01*
X3195800Y4901300D01*
X3193900Y4889500D01*
X3234700D01*
G01X3175000Y4216400D02*
Y4927600D01*
X3429000D01*
Y4216400D01*
X3175000D01*
G01X3653600Y1640400D02*
X3644000Y1646800D01*
X3632700Y1651000D01*
X3619900D01*
X3605400Y1644600D01*
X3594100Y1634100D01*
X3586100Y1621400D01*
X3579600Y1600200D01*
X3578000Y1581100D01*
X3581300Y1562100D01*
X3586100Y1549400D01*
X3595700Y1536700D01*
X3607000Y1528200D01*
X3618200Y1524000D01*
X3629500D01*
X3640800Y1528200D01*
X3650400Y1534600D01*
X3658500Y1543000D01*
G01X3717200Y1576900D02*
X3728400Y1591700D01*
X3738100Y1600200D01*
X3751000Y1604400D01*
X3762200Y1600200D01*
X3770300Y1591700D01*
X3776700Y1579000D01*
X3778300Y1564200D01*
X3776700Y1551500D01*
X3770300Y1538800D01*
X3760600Y1528200D01*
X3749400Y1524000D01*
X3736500Y1528200D01*
X3725200Y1540900D01*
X3718800Y1560000D01*
X3717200Y1581100D01*
X3720400Y1608700D01*
X3725200Y1623500D01*
X3733300Y1638300D01*
X3744500Y1648900D01*
X3755800Y1651000D01*
X3767100Y1646800D01*
X3775100Y1636200D01*
G01X4064000Y1397000D02*
G03I-254000J0D01*
G01X3937000Y2286000D02*
G03I-254000J0D01*
G01X4132100Y4889500D02*
Y4968200D01*
X4156500D01*
X4164300Y4964300D01*
X4169100Y4959000D01*
X4171100Y4948500D01*
X4169100Y4938000D01*
X4163300Y4931500D01*
X4156500Y4927500D01*
X4132100D01*
G01X4156500D02*
X4171100Y4889500D01*
G01X4211800Y4922300D02*
X4218600Y4931500D01*
X4224500Y4936700D01*
X4232200Y4939300D01*
X4239100Y4936700D01*
X4243900Y4931500D01*
X4247800Y4923600D01*
X4248800Y4914400D01*
X4247800Y4906600D01*
X4243900Y4898700D01*
X4238100Y4892100D01*
X4231300Y4889500D01*
X4223500Y4892100D01*
X4216700Y4900000D01*
X4212800Y4911800D01*
X4211800Y4924900D01*
X4213800Y4942000D01*
X4216700Y4951100D01*
X4221500Y4960300D01*
X4228400Y4966900D01*
X4235200Y4968200D01*
X4242000Y4965600D01*
X4246800Y4959000D01*
G01X3624100Y4889500D02*
Y4968200D01*
X3648500D01*
X3656300Y4964300D01*
X3661100Y4959000D01*
X3663100Y4948500D01*
X3661100Y4938000D01*
X3655300Y4931500D01*
X3648500Y4927500D01*
X3624100D01*
G01X3648500D02*
X3663100Y4889500D01*
G01X3700900Y4901300D02*
X3706700Y4894700D01*
X3713500Y4890800D01*
X3722300Y4889500D01*
X3731100Y4892100D01*
X3737900Y4897400D01*
X3742700Y4906600D01*
X3743700Y4917000D01*
X3741800Y4927500D01*
X3736900Y4934100D01*
X3730100Y4939300D01*
X3723300Y4940700D01*
X3716500Y4939300D01*
X3707700Y4934100D01*
X3710600Y4968200D01*
X3736900D01*
G01X3937000Y4927600D02*
Y4216400D01*
X3683000D01*
Y4927600D01*
X3937000D01*
G01X4333800Y254000D02*
X4254200D01*
Y414000D01*
X4333800D01*
G01X4302000Y336700D02*
X4254200D01*
G01X4414200Y414000D02*
Y254000D01*
X4493800D01*
G01X4653800D02*
X4574200D01*
Y414000D01*
X4653800D01*
G01X4622000Y336700D02*
X4574200D01*
G01X4817800Y400700D02*
X4805800Y408700D01*
X4791900Y414000D01*
X4776000D01*
X4758100Y406000D01*
X4744200Y392700D01*
X4734200Y376700D01*
X4726200Y350000D01*
X4724200Y326000D01*
X4728200Y302000D01*
X4734200Y286000D01*
X4746100Y270000D01*
X4760100Y259300D01*
X4774000Y254000D01*
X4787900D01*
X4801900Y259300D01*
X4813800Y267300D01*
X4823800Y278000D01*
G01X4934000Y414000D02*
Y254000D01*
G01X4888200Y414000D02*
X4979800D01*
G01X5054200Y254000D02*
Y414000D01*
X5103900D01*
X5119900Y406000D01*
X5129800Y395300D01*
X5133800Y374000D01*
X5129800Y352700D01*
X5117900Y339300D01*
X5103900Y331300D01*
X5054200D01*
G01X5103900D02*
X5133800Y254000D01*
G01X5254000D02*
X5238100Y256700D01*
X5224200Y267300D01*
X5212200Y283300D01*
X5204200Y302000D01*
X5200300Y323300D01*
Y344700D01*
X5204200Y366000D01*
X5212200Y384700D01*
X5224200Y400700D01*
X5238100Y411300D01*
X5254000Y414000D01*
X5269900Y411300D01*
X5283800Y400700D01*
X5295800Y384700D01*
X5303800Y366000D01*
X5307700Y344700D01*
Y323300D01*
X5303800Y302000D01*
X5295800Y283300D01*
X5283800Y267300D01*
X5269900Y256700D01*
X5254000Y254000D01*
G01X5368200D02*
Y414000D01*
X5459800Y254000D01*
Y414000D01*
G01X5550100D02*
X5597900D01*
G01X5574000D02*
Y254000D01*
G01X5550100D02*
X5597900D01*
G01X5777800Y400700D02*
X5765800Y408700D01*
X5751900Y414000D01*
X5736000D01*
X5718100Y406000D01*
X5704200Y392700D01*
X5694200Y376700D01*
X5686200Y350000D01*
X5684200Y326000D01*
X5688200Y302000D01*
X5694200Y286000D01*
X5706100Y270000D01*
X5720100Y259300D01*
X5734000Y254000D01*
X5747900D01*
X5761900Y259300D01*
X5773800Y267300D01*
X5783800Y278000D01*
G01X6097800Y400700D02*
X6085800Y408700D01*
X6071900Y414000D01*
X6056000D01*
X6038100Y406000D01*
X6024200Y392700D01*
X6014200Y376700D01*
X6006200Y350000D01*
X6004200Y326000D01*
X6008200Y302000D01*
X6014200Y286000D01*
X6026100Y270000D01*
X6040100Y259300D01*
X6054000Y254000D01*
X6067900D01*
X6081900Y259300D01*
X6093800Y267300D01*
X6103800Y278000D01*
G01X6164200Y254000D02*
X6214000Y414000D01*
X6263800Y254000D01*
G01X6245800Y310000D02*
X6182200D01*
G01X6330200Y254000D02*
Y414000D01*
X6370000D01*
X6385900Y406000D01*
X6397900Y395300D01*
X6407800Y379300D01*
X6415800Y360700D01*
X6417800Y334000D01*
X6415800Y307300D01*
X6407800Y288700D01*
X6397900Y272700D01*
X6385900Y262000D01*
X6370000Y254000D01*
X6330200D01*
G01X4415600Y2719900D02*
X4406000Y2726300D01*
X4394700Y2730500D01*
X4381900D01*
X4367400Y2724100D01*
X4356100Y2713600D01*
X4348100Y2700900D01*
X4341600Y2679700D01*
X4340000Y2660600D01*
X4343300Y2641600D01*
X4348100Y2628900D01*
X4357700Y2616200D01*
X4369000Y2607700D01*
X4380200Y2603500D01*
X4391500D01*
X4402800Y2607700D01*
X4412400Y2614100D01*
X4420500Y2622500D01*
G01X4479200Y2709300D02*
X4488800Y2722000D01*
X4500100Y2728400D01*
X4513000Y2730500D01*
X4529100Y2726300D01*
X4540300Y2715700D01*
X4543500Y2703000D01*
X4541900Y2690300D01*
X4535500Y2679700D01*
X4503300Y2658500D01*
X4488800Y2643700D01*
X4479200Y2622500D01*
X4476000Y2603500D01*
X4543500D01*
G01X4826000Y2413000D02*
G03I-254000J0D01*
G01X4662400Y4889500D02*
Y4798500D01*
X4668800Y4779400D01*
X4681700Y4766700D01*
X4697700Y4762500D01*
X4713800Y4766700D01*
X4726700Y4779400D01*
X4733100Y4798500D01*
Y4889500D01*
G01X4796700Y4868300D02*
X4806300Y4881000D01*
X4817600Y4887400D01*
X4830500Y4889500D01*
X4846600Y4885300D01*
X4857800Y4874700D01*
X4861000Y4862000D01*
X4859400Y4849300D01*
X4853000Y4838700D01*
X4820800Y4817500D01*
X4806300Y4802700D01*
X4796700Y4781500D01*
X4793500Y4762500D01*
X4861000D01*
G01X4699000Y4165600D02*
Y4318000D01*
X4762500Y4381500D01*
Y4508500D01*
X4699000Y4572000D01*
Y4724400D01*
X5715000D01*
Y4165600D01*
X4699000D01*
G01X4191000Y4216400D02*
Y4927600D01*
X4445000D01*
Y4216400D01*
X4191000D01*
G01X4699000Y5435600D02*
Y5588000D01*
X4762500Y5651500D01*
Y5778500D01*
X4699000Y5842000D01*
Y5994400D01*
X5715000D01*
Y5435600D01*
X4699000D01*
G01X4662400Y6096000D02*
Y6005000D01*
X4668800Y5985900D01*
X4681700Y5973200D01*
X4697700Y5969000D01*
X4713800Y5973200D01*
X4726700Y5985900D01*
X4733100Y6005000D01*
Y6096000D01*
G01X4827200Y5969000D02*
Y6096000D01*
X4807900Y6070600D01*
G01Y5969000D02*
X4846500D01*
G01X4360000Y6604000D02*
X4344100Y6606700D01*
X4330200Y6617300D01*
X4318200Y6633300D01*
X4310200Y6652000D01*
X4306300Y6673300D01*
Y6694700D01*
X4310200Y6716000D01*
X4318200Y6734700D01*
X4330200Y6750700D01*
X4344100Y6761300D01*
X4360000Y6764000D01*
X4375900Y6761300D01*
X4389800Y6750700D01*
X4401800Y6734700D01*
X4409800Y6716000D01*
X4413700Y6694700D01*
Y6673300D01*
X4409800Y6652000D01*
X4401800Y6633300D01*
X4389800Y6617300D01*
X4375900Y6606700D01*
X4360000Y6604000D01*
G01X4478200Y6625300D02*
X4494100Y6612000D01*
X4512000Y6604000D01*
X4528000D01*
X4543900Y6612000D01*
X4555800Y6625300D01*
X4561800Y6644000D01*
X4557800Y6662700D01*
X4547900Y6678700D01*
X4529900Y6689300D01*
X4506100Y6694700D01*
X4492100Y6705300D01*
X4486200Y6724000D01*
X4490200Y6742700D01*
X4500100Y6756000D01*
X4514000Y6764000D01*
X4528000D01*
X4541900Y6758700D01*
X4553800Y6745300D01*
G01X4723800Y6750700D02*
X4711800Y6758700D01*
X4697900Y6764000D01*
X4682000D01*
X4664100Y6756000D01*
X4650200Y6742700D01*
X4640200Y6726700D01*
X4632200Y6700000D01*
X4630200Y6676000D01*
X4634200Y6652000D01*
X4640200Y6636000D01*
X4652100Y6620000D01*
X4666100Y6609300D01*
X4680000Y6604000D01*
X4693900D01*
X4707900Y6609300D01*
X4719800Y6617300D01*
X4729800Y6628000D01*
G01X4816100Y6764000D02*
X4863900D01*
G01X4840000D02*
Y6604000D01*
G01X4816100D02*
X4863900D01*
G01X4960200Y6764000D02*
Y6604000D01*
X5039800D01*
G01X5120200Y6764000D02*
Y6604000D01*
X5199800D01*
G01X5270200D02*
X5320000Y6764000D01*
X5369800Y6604000D01*
G01X5351800Y6660000D02*
X5288200D01*
G01X5480000Y6764000D02*
Y6604000D01*
G01X5434200Y6764000D02*
X5525800D01*
G01X5640000Y6604000D02*
X5624100Y6606700D01*
X5610200Y6617300D01*
X5598200Y6633300D01*
X5590200Y6652000D01*
X5586300Y6673300D01*
Y6694700D01*
X5590200Y6716000D01*
X5598200Y6734700D01*
X5610200Y6750700D01*
X5624100Y6761300D01*
X5640000Y6764000D01*
X5655900Y6761300D01*
X5669800Y6750700D01*
X5681800Y6734700D01*
X5689800Y6716000D01*
X5693700Y6694700D01*
Y6673300D01*
X5689800Y6652000D01*
X5681800Y6633300D01*
X5669800Y6617300D01*
X5655900Y6606700D01*
X5640000Y6604000D01*
G01X5760200D02*
Y6764000D01*
X5809900D01*
X5825900Y6756000D01*
X5835800Y6745300D01*
X5839800Y6724000D01*
X5835800Y6702700D01*
X5823900Y6689300D01*
X5809900Y6681300D01*
X5760200D01*
G01X5809900D02*
X5839800Y6604000D01*
G01X5170400Y1778000D02*
Y1687000D01*
X5176800Y1667900D01*
X5189700Y1655200D01*
X5205700Y1651000D01*
X5221800Y1655200D01*
X5234700Y1667900D01*
X5241100Y1687000D01*
Y1778000D01*
G01X5354600Y1651000D02*
Y1778000D01*
X5295000Y1687000D01*
X5375500D01*
G01X5207000Y1117600D02*
Y1270000D01*
X5270500Y1333500D01*
Y1460500D01*
X5207000Y1524000D01*
Y1676400D01*
X6223000D01*
Y1117600D01*
X5207000D01*
G01Y2387600D02*
Y2540000D01*
X5270500Y2603500D01*
Y2730500D01*
X5207000Y2794000D01*
Y2946400D01*
X6223000D01*
Y2387600D01*
X5207000D01*
G01X5233900Y3048000D02*
Y2957000D01*
X5240300Y2937900D01*
X5253200Y2925200D01*
X5269200Y2921000D01*
X5285300Y2925200D01*
X5298200Y2937900D01*
X5304600Y2957000D01*
Y3048000D01*
G01X5363400Y2946400D02*
X5373000Y2931600D01*
X5385900Y2923100D01*
X5400400Y2921000D01*
X5413200Y2923100D01*
X5426100Y2933700D01*
X5434100Y2946400D01*
X5435700Y2959100D01*
X5432500Y2973900D01*
X5421300Y2984500D01*
X5410000Y2988700D01*
X5395500D01*
G01X5410000D02*
X5419700Y2995100D01*
X5427700Y3005700D01*
X5430900Y3018400D01*
X5427700Y3031100D01*
X5419700Y3041600D01*
X5405200Y3048000D01*
X5390700Y3045900D01*
X5376200Y3037400D01*
G01X6731000Y2946400D02*
Y3657600D01*
X6985000D01*
Y2946400D01*
X6731000D01*
G01X6672100Y3683000D02*
Y3761700D01*
X6696500D01*
X6704300Y3757800D01*
X6709100Y3752500D01*
X6711100Y3742000D01*
X6709100Y3731500D01*
X6703300Y3725000D01*
X6696500Y3721000D01*
X6672100D01*
G01X6696500D02*
X6711100Y3683000D01*
G01X6753800Y3692200D02*
X6760600Y3685600D01*
X6768400Y3683000D01*
X6776100Y3685600D01*
X6783000Y3693500D01*
X6787800Y3705300D01*
X6789800Y3717100D01*
Y3731500D01*
X6787800Y3743300D01*
X6783000Y3753800D01*
X6777100Y3759100D01*
X6770300Y3761700D01*
X6762500Y3759100D01*
X6756700Y3753800D01*
X6752800Y3746000D01*
X6750800Y3735500D01*
X6752800Y3726300D01*
X6757600Y3717100D01*
X6763500Y3711900D01*
X6770300Y3710500D01*
X6778100Y3713200D01*
X6783900Y3719700D01*
X6789800Y3731500D01*
G01X7493000Y3657600D02*
Y2946400D01*
X7239000D01*
Y3657600D01*
X7493000D01*
G01X8001000D02*
Y2946400D01*
X7747000D01*
Y3657600D01*
X8001000D01*
G01X7204300Y3683000D02*
Y3761700D01*
X7228700D01*
X7236500Y3757800D01*
X7241300Y3752500D01*
X7243300Y3742000D01*
X7241300Y3731500D01*
X7235500Y3725000D01*
X7228700Y3721000D01*
X7204300D01*
G01X7228700D02*
X7243300Y3683000D01*
G01X7302500D02*
Y3761700D01*
X7290800Y3746000D01*
G01Y3683000D02*
X7314200D01*
G01X7381200Y3761700D02*
X7373400Y3759100D01*
X7367600Y3752500D01*
X7363700Y3744600D01*
X7360800Y3734200D01*
X7359800Y3722300D01*
X7360800Y3710500D01*
X7363700Y3700100D01*
X7367600Y3692200D01*
X7373400Y3685600D01*
X7381200Y3683000D01*
X7389000Y3685600D01*
X7394800Y3692200D01*
X7398700Y3700100D01*
X7401600Y3710500D01*
X7402600Y3722300D01*
X7401600Y3734200D01*
X7398700Y3744600D01*
X7394800Y3752500D01*
X7389000Y3759100D01*
X7381200Y3761700D01*
G01X7751600Y3683000D02*
Y3761700D01*
X7776000D01*
X7783800Y3757800D01*
X7788600Y3752500D01*
X7790600Y3742000D01*
X7788600Y3731500D01*
X7782800Y3725000D01*
X7776000Y3721000D01*
X7751600D01*
G01X7776000D02*
X7790600Y3683000D01*
G01X7828400Y3698700D02*
X7834200Y3689600D01*
X7842000Y3684300D01*
X7850800Y3683000D01*
X7858600Y3684300D01*
X7866300Y3690900D01*
X7871200Y3698700D01*
X7872200Y3706600D01*
X7870200Y3715800D01*
X7863400Y3722300D01*
X7856600Y3725000D01*
X7847900D01*
G01X7856600D02*
X7862500Y3728900D01*
X7867300Y3735500D01*
X7869300Y3743300D01*
X7867300Y3751200D01*
X7862500Y3757800D01*
X7853700Y3761700D01*
X7844900Y3760400D01*
X7836200Y3755100D01*
G01X8509000Y3657600D02*
Y2946400D01*
X8255000D01*
Y3657600D01*
X8509000D01*
G01X8259600Y3683000D02*
Y3761700D01*
X8284000D01*
X8291800Y3757800D01*
X8296600Y3752500D01*
X8298600Y3742000D01*
X8296600Y3731500D01*
X8290800Y3725000D01*
X8284000Y3721000D01*
X8259600D01*
G01X8284000D02*
X8298600Y3683000D01*
G01X8355900D02*
X8357800Y3700100D01*
X8360700Y3714500D01*
X8364600Y3727600D01*
X8369500Y3742000D01*
X8377300Y3761700D01*
X8338300D01*
G01X9627000Y3373000D02*
X9373000D01*
Y3881000D01*
X9627000D01*
Y3373000D01*
G01X8763000Y2946400D02*
Y3657600D01*
X9017000D01*
Y2946400D01*
X8763000D01*
G01X8767600Y3619500D02*
Y3698200D01*
X8792000D01*
X8799800Y3694300D01*
X8804600Y3689000D01*
X8806600Y3678500D01*
X8804600Y3668000D01*
X8798800Y3661500D01*
X8792000Y3657500D01*
X8767600D01*
G01X8792000D02*
X8806600Y3619500D01*
G01X8877500D02*
Y3698200D01*
X8841500Y3641800D01*
X8890100D01*
G01X9275600Y3889200D02*
X9280500Y3881400D01*
X9286300Y3876100D01*
X9293200Y3873500D01*
X9300900Y3876100D01*
X9306800Y3881400D01*
X9312600Y3889200D01*
X9314600Y3899700D01*
Y3952200D01*
G01X9373800Y3873500D02*
Y3952200D01*
X9362100Y3936500D01*
G01Y3873500D02*
X9385500D01*
M02*
