G04 ================== begin FILE IDENTIFICATION RECORD ==================*
G04 Layout Name:  C:/USERS/USER/DESKTOP/EX/OSCILLATOR/allegro/OSCILLATOR.brd*
G04 Film Name:    SolderB*
G04 File Format:  Gerber RS274X*
G04 File Origin:  Cadence Allegro 17.2-P019*
G04 Origin Date:  Thu Aug 01 11:30:56 2019*
G04 *
G04 Layer:  PIN/SOLDERMASK_BOTTOM*
G04 Layer:  PACKAGE GEOMETRY/SILKSCREEN_BOTTOM*
G04 Layer:  BOARD GEOMETRY/SOLDERMASK_BOTTOM*
G04 *
G04 Offset:    (0.000 0.000)*
G04 Mirror:    No*
G04 Mode:      Positive*
G04 Rotation:  0*
G04 FullContactRelief:  No*
G04 UndefLineWidth:     0.000*
G04 ================== end FILE IDENTIFICATION RECORD ====================*
%FSLAX25Y25*MOIN*%
%IR0*IPPOS*OFA0.00000B0.00000*MIA0B0*SFA1.00000B1.00000*%
%ADD12C,.08*%
%ADD11C,.075*%
%ADD10C,.145*%
%ADD13R,.075X.075*%
%LPD*%
G75*
G54D10*
X19685Y19685D03*
Y255906D03*
X374016Y19685D03*
Y255906D03*
G54D11*
X19685Y137480D03*
Y147480D03*
Y157480D03*
X60000Y50000D03*
Y60000D03*
Y90000D03*
Y100000D03*
Y220000D03*
X70000Y230000D03*
X100000Y90000D03*
X80000Y220000D03*
X110000Y50000D03*
X120000D03*
X110000Y90000D03*
Y180000D03*
Y190000D03*
X150000Y50000D03*
Y60000D03*
Y90000D03*
X140000D03*
X180000Y100000D03*
Y90000D03*
X190000Y190000D03*
Y240000D03*
X220000Y40000D03*
Y70000D03*
X210000D03*
X220000Y90000D03*
Y120000D03*
X210000D03*
X220000Y160000D03*
X210000D03*
X200000D03*
X220000Y190000D03*
X210000D03*
X200000D03*
X220000Y210000D03*
X210000D03*
X200000D03*
X220000Y240000D03*
X210000D03*
X200000D03*
X240000Y40000D03*
X230000D03*
X240000Y70000D03*
X230000D03*
X240000Y90000D03*
X230000D03*
X240000Y120000D03*
X230000D03*
X374016Y147795D03*
Y137795D03*
G54D12*
X60000Y160000D03*
Y200000D03*
X80000Y160000D03*
Y200000D03*
X130000Y160000D03*
Y200000D03*
X150000Y160000D03*
Y200000D03*
X170000Y160000D03*
Y200000D03*
X270000Y110000D03*
Y150000D03*
X290000Y110000D03*
X310000D03*
X290000Y150000D03*
X310000D03*
X330000Y110000D03*
Y150000D03*
X350000Y110000D03*
Y150000D03*
G54D13*
X100000Y50000D03*
X90000Y90000D03*
X190000Y160000D03*
Y210000D03*
X210000Y40000D03*
Y90000D03*
M02*
