G04 ================== begin FILE IDENTIFICATION RECORD ==================*
G04 Layout Name:  C:/USERS/USER/DESKTOP/EX/OSCILLATOR/allegro/OSCILLATOR.brd*
G04 Film Name:    TOP*
G04 File Format:  Gerber RS274X*
G04 File Origin:  Cadence Allegro 17.2-P019*
G04 Origin Date:  Thu Aug 01 11:31:07 2019*
G04 *
G04 Layer:  ETCH/TOP*
G04 Layer:  PIN/TOP*
G04 Layer:  VIA CLASS/TOP*
G04 *
G04 Offset:    (0.000 0.000)*
G04 Mirror:    No*
G04 Mode:      Positive*
G04 Rotation:  0*
G04 FullContactRelief:  No*
G04 UndefLineWidth:     0.000*
G04 ================== end FILE IDENTIFICATION RECORD ====================*
%FSLAX25Y25*MOMM*%
%IR0*IPPOS*OFA0.00000B0.00000*MIA0B0*SFA1.00000B1.00000*%
%ADD11C,1.524*%
%ADD12C,1.651*%
%ADD14C,1.905*%
%ADD15R,1.524X1.524*%
%ADD13R,1.905X1.905*%
%ADD10C,.635*%
%ADD16C,1.*%
%ADD17C,.5*%
%ADD18C,2.036*%
%ADD19C,2.164*%
%ADD20C,2.418*%
G75*
%LPD*%
G75*
G36*
G01X5926500Y1917900D02*
X9051500D01*
X9131100Y1997500D01*
Y3781000D01*
X9051500Y3860600D01*
X8985600D01*
G03X8940600Y3905600I-95600J-50600D01*
G01Y3929500D01*
X8961000Y3949900D01*
X9136500D01*
X9156900Y3929500D01*
Y3521500D01*
X9236500Y3441900D01*
X9386900D01*
X9394400Y3449400D01*
X9411700D01*
G03X9500000Y3398200I88300J50542D01*
G01Y754200D01*
X9245800D01*
Y500000D01*
X754200D01*
Y754200D01*
X500000D01*
Y3390200D01*
G03Y3593800I0J101800D01*
G01Y3644200D01*
G03Y3847800I0J101800D01*
G01Y3898200D01*
G03Y4101800I0J101800D01*
G01Y6245800D01*
X754200D01*
Y6500000D01*
X9245800D01*
Y6245800D01*
X9500000D01*
Y3855800D01*
G03Y3652200I0J-101800D01*
G01Y3601800D01*
G03X9411700Y3550600I0J-101742D01*
G01X9352400D01*
X9344900Y3543100D01*
X9278500D01*
X9258100Y3563500D01*
Y3971500D01*
X9178500Y4051100D01*
X8919000D01*
X8839400Y3971500D01*
Y3905600D01*
G03X8985600Y3759400I50600J-95600D01*
G01X9009500D01*
X9029900Y3739000D01*
Y2039500D01*
X9009500Y2019100D01*
X5884500D01*
X5791400Y1926000D01*
Y1866300D01*
G03X5892600I50600J-88300D01*
G01Y1884000D01*
X5926500Y1917900D01*
G37*
%LPC*%
G75*
G36*
G01X5232200Y2209800D02*
Y2362200D01*
G02X5257800Y2387800I25600J0D01*
G01X5410200D01*
G02X5435800Y2362200I0J-25600D01*
G01Y2209800D01*
G02X5410200Y2184200I-25600J0D01*
G01X5257800D01*
G02X5232200Y2209800I0J25600D01*
G37*
G36*
G01Y939800D02*
Y1092200D01*
G02X5257800Y1117800I25600J0D01*
G01X5410200D01*
G02X5435800Y1092200I0J-25600D01*
G01Y939800D01*
G02X5410200Y914200I-25600J0D01*
G01X5257800D01*
G02X5232200Y939800I0J25600D01*
G37*
G36*
G01X4724200Y5257800D02*
Y5410200D01*
G02X4749800Y5435800I25600J0D01*
G01X4902200D01*
G02X4927800Y5410200I0J-25600D01*
G01Y5257800D01*
G02X4902200Y5232200I-25600J0D01*
G01X4749800D01*
G02X4724200Y5257800I0J25600D01*
G37*
G36*
G01Y3987800D02*
Y4140200D01*
G02X4749800Y4165800I25600J0D01*
G01X4902200D01*
G02X4927800Y4140200I0J-25600D01*
G01Y3987800D01*
G02X4902200Y3962200I-25600J0D01*
G01X4749800D01*
G02X4724200Y3987800I0J25600D01*
G37*
G36*
G01X2419200Y1174800D02*
Y1365200D01*
G02X2444800Y1390800I25550J50D01*
G01X2635200D01*
G02X2660800Y1365200I50J-25550D01*
G01Y1174800D01*
G02X2635200Y1149200I-25550J-50D01*
G01X2444800D01*
G02X2419200Y1174800I-50J25550D01*
G37*
G36*
G01X5130600Y5495500D02*
Y5422300D01*
G02X5029400I-50600J-88300D01*
G01Y5453500D01*
X5009000Y5473900D01*
X4593000D01*
X4466000Y5346900D01*
X1553000D01*
X1473400Y5426500D01*
Y5499700D01*
G02X1574600I50600J88300D01*
G01Y5468500D01*
X1595000Y5448100D01*
X4424000D01*
X4551000Y5575100D01*
X5051000D01*
X5130600Y5495500D01*
G37*
G36*
G01X2091900Y5201300D02*
X2082600Y5192000D01*
Y5175600D01*
G02X1981400I-50600J-95600D01*
G01Y5234000D01*
X2049900Y5302500D01*
X3792100D01*
X3860600Y5234000D01*
Y5175600D01*
G02X3759400I-50600J-95600D01*
G01Y5192000D01*
X3750100Y5201300D01*
X2091900D01*
G37*
G36*
G01X2743400Y5051000D02*
X2823000Y5130600D01*
X3206400D01*
G02X3352600Y4984400I95600J-50600D01*
G01Y4968000D01*
X3380500Y4940100D01*
X4294600D01*
X4309900Y4955400D01*
G03X4304000Y4972700I-7203J7200D01*
G02X4426200Y5077500I14016J107301D01*
G03X4436400Y5067100I10185J-213D01*
G01X5291500D01*
X5384600Y4974000D01*
Y4914300D01*
G02X5283400I-50600J-88300D01*
G01Y4932000D01*
X5249500Y4965900D01*
X4463600D01*
X4336600Y4838900D01*
X3338500D01*
X3251400Y4926000D01*
Y4984400D01*
G02X3206400Y5029400I50600J95600D01*
G01X2865000D01*
X2844600Y5009000D01*
Y4914300D01*
G02X2743400I-50600J-88300D01*
G01Y5051000D01*
G37*
G36*
G01X5802500Y3988400D02*
X5656200D01*
G02Y4139600I-68200J75600D01*
G01X5739900D01*
X5766400Y4166100D01*
Y5231900D01*
X5739900Y5258400D01*
X5656200D01*
G02Y5409600I-68200J75600D01*
G01X5802500D01*
X5917600Y5294500D01*
Y4103500D01*
X5802500Y3988400D01*
G37*
G36*
G01X5130600Y3902600D02*
X5050900Y3822900D01*
X4347000D01*
X4267400Y3902500D01*
Y3968400D01*
G02X4368600I50600J95600D01*
G01Y3944500D01*
X4389000Y3924100D01*
X5008900D01*
X5029400Y3944600D01*
Y3975700D01*
G02X5130600I50600J88300D01*
G01Y3902600D01*
G37*
G36*
G01X2836500Y4013400D02*
X2743400Y4106500D01*
Y4483700D01*
G02X2844600I50600J88300D01*
G01Y4148500D01*
X2878500Y4114600D01*
X3206400D01*
G02X3397600I95600J-50600D01*
G01X3714400D01*
G02X3860600Y3968400I95600J-50600D01*
G01Y3894500D01*
X3958000Y3797100D01*
X5185900D01*
X5283400Y3894600D01*
Y3975700D01*
G02X5384600I50600J88300D01*
G01Y3852600D01*
X5227900Y3695900D01*
X3916000D01*
X3759400Y3852500D01*
Y3968400D01*
G02X3714400Y4013400I50600J95600D01*
G01X3397600D01*
G02X3206400I-95600J50600D01*
G01X2836500D01*
G37*
G36*
G01X6718100Y3281000D02*
X6625000Y3187900D01*
X5926500D01*
X5892600Y3154000D01*
Y3136300D01*
G02X5791400I-50600J-88300D01*
G01Y3196000D01*
X5884500Y3289100D01*
X6583000D01*
X6616900Y3323000D01*
Y3781000D01*
X6696500Y3860600D01*
X6762400D01*
G02X6807400Y3905600I95600J-50600D01*
G01Y3971500D01*
X6887000Y4051100D01*
X8353000D01*
X8432600Y3971500D01*
Y3905600D01*
G02X8331400I-50600J-95600D01*
G01Y3929500D01*
X8311000Y3949900D01*
X6929000D01*
X6908600Y3929500D01*
Y3905600D01*
G02X6762400Y3759400I-50600J-95600D01*
G01X6738500D01*
X6718100Y3739000D01*
Y3281000D01*
G37*
G36*
G01X5638600Y2709500D02*
Y2374300D01*
G02X5537400I-50600J-88300D01*
G01Y2751500D01*
X5630500Y2844600D01*
X6762400D01*
G02X6953600I95600J-50600D01*
G01X7270400D01*
G02Y2743400I95600J-50600D01*
G01X6953600D01*
G02X6762400I-95600J50600D01*
G01X5672500D01*
X5638600Y2709500D01*
G37*
G36*
G01X2406800Y2190800D02*
G02X2381200Y2165200I-25550J-50D01*
G01X2190800D01*
G02X2165200Y2190800I-50J25550D01*
G01Y2381200D01*
G02X2190800Y2406800I25550J50D01*
G01X2235400D01*
Y2469000D01*
X2215000Y2489400D01*
X1612300D01*
G02Y2590600I-88300J50600D01*
G01X2257000D01*
X2336600Y2511000D01*
Y2406800D01*
X2381200D01*
G02X2406800Y2381200I50J-25550D01*
G01Y2190800D01*
G37*
G36*
G01X3487800Y2210400D02*
X2888300D01*
G02Y2361600I-94300J75600D01*
G01X3487800D01*
G02Y2210400I68200J-75600D01*
G37*
G36*
G01X2844600Y1103200D02*
X2770300Y1028900D01*
X1566500D01*
X1473400Y1122000D01*
Y1181700D01*
G02X1574600I50600J88300D01*
G01Y1164000D01*
X1608500Y1130100D01*
X2728300D01*
X2743400Y1145200D01*
Y1160200D01*
G02X2844600I50600J109800D01*
G01Y1103200D01*
G37*
G36*
G01X5045500Y1155900D02*
X4965900Y1235500D01*
Y1989500D01*
X5122500Y2146100D01*
X7803000D01*
X7823400Y2166500D01*
Y2698400D01*
G02X7969600Y2844600I50600J95600D01*
G01X8286400D01*
G02X8477600I95600J-50600D01*
G01X8794400D01*
G02Y2743400I95600J-50600D01*
G01X8477600D01*
G02X8286400I-95600J50600D01*
G01X7969600D01*
G02X7924600Y2698400I-95600J50600D01*
G01Y2124500D01*
X7845000Y2044900D01*
X5164500D01*
X5067100Y1947500D01*
Y1277500D01*
X5087500Y1257100D01*
X5813000D01*
X5892600Y1177500D01*
Y1104300D01*
G02X5791400I-50600J-88300D01*
G01Y1135500D01*
X5771000Y1155900D01*
X5045500D01*
G37*
G36*
G01X6171600Y794200D02*
X6056500Y679100D01*
X3849500D01*
X3734400Y794200D01*
Y1194400D01*
X3142300D01*
G02Y1345600I-94300J75600D01*
G01X3741800D01*
G02X3885600Y1201800I68200J-75600D01*
G01Y856800D01*
X3912100Y830300D01*
X5993900D01*
X6020400Y856800D01*
Y947800D01*
G02X6171600I75600J68200D01*
G01Y794200D01*
G37*
G54D18*
X1524000Y1524000D03*
Y2286000D03*
X1778000Y5842000D03*
X2032000Y5588000D03*
X3810000Y1524000D03*
Y2286000D03*
X4572000Y2540000D03*
Y2286000D03*
X4826000Y4826000D03*
Y6096000D03*
X5588000Y1016000D03*
Y1778000D03*
X5334000D03*
X5588000Y3048000D03*
X5334000D03*
X5588000Y4826000D03*
X5080000D03*
X5334000Y5334000D03*
X5588000Y6096000D03*
X5334000D03*
X5080000D03*
X6096000Y1778000D03*
Y2286000D03*
X5842000D03*
X6096000Y3048000D03*
G54D19*
X1524000Y4064000D03*
Y5080000D03*
X2032000Y4064000D03*
X7366000Y3810000D03*
X7874000D03*
G54D20*
X2540000Y2286000D03*
%LPD*%
G75*
G54D10*
X500000Y500000D03*
Y6500000D03*
X9500000Y500000D03*
Y6500000D03*
G54D11*
X500000Y3492000D03*
Y3746000D03*
Y4000000D03*
X1524000Y1270000D03*
Y1524000D03*
Y2286000D03*
Y2540000D03*
Y5588000D03*
X1778000Y5842000D03*
X2032000Y5588000D03*
X2794000Y4572000D03*
Y4826000D03*
X3810000Y1270000D03*
Y1524000D03*
Y2286000D03*
X3556000D03*
X4572000Y2540000D03*
Y2286000D03*
X4826000Y4826000D03*
Y6096000D03*
X5588000Y1016000D03*
Y1778000D03*
X5334000D03*
X5588000Y2286000D03*
Y3048000D03*
X5334000D03*
X5588000Y4064000D03*
X5334000D03*
X5080000D03*
X5588000Y4826000D03*
X5334000D03*
X5080000D03*
X5588000Y5334000D03*
X5334000D03*
X5080000D03*
X5588000Y6096000D03*
X5334000D03*
X5080000D03*
X6096000Y1016000D03*
X5842000D03*
X6096000Y1778000D03*
X5842000D03*
X6096000Y2286000D03*
X5842000D03*
X6096000Y3048000D03*
X5842000D03*
X9500000Y3754000D03*
Y3500000D03*
G54D12*
X1524000Y4064000D03*
Y5080000D03*
X2032000Y4064000D03*
Y5080000D03*
X3302000Y4064000D03*
Y5080000D03*
X3810000Y4064000D03*
Y5080000D03*
X4318000Y4064000D03*
Y5080000D03*
X6858000Y2794000D03*
Y3810000D03*
X7366000Y2794000D03*
X7874000D03*
X7366000Y3810000D03*
X7874000D03*
X8382000Y2794000D03*
Y3810000D03*
X8890000Y2794000D03*
Y3810000D03*
G54D13*
X2540000Y1270000D03*
X2286000Y2286000D03*
G54D14*
X2540000D03*
X2794000Y1270000D03*
X3048000D03*
X2794000Y2286000D03*
G54D15*
X4826000Y4064000D03*
Y5334000D03*
X5334000Y1016000D03*
Y2286000D03*
G54D16*
G01X1524000Y4064000D02*
X1637300D01*
G01X1410700D02*
X1524000D01*
G01D02*
Y4177300D01*
G01Y3950700D02*
Y4064000D01*
G01X3048000Y1270000D02*
X3810000D01*
G01X2794000Y2286000D02*
X3556000D01*
G01X6096000Y1016000D02*
Y825500D01*
X6025200Y754700D01*
X3880800D01*
X3810000Y825500D01*
Y1270000D01*
G01X4572000Y2540000D02*
X4678900D01*
G01X4465100D02*
X4572000D01*
G01D02*
Y2646900D01*
G01X4204700Y5080000D02*
X4318000D01*
G01D02*
Y5193300D01*
G01X5588000Y4064000D02*
X5771200D01*
X5842000Y4134800D01*
Y5263200D01*
X5771200Y5334000D01*
X5588000D01*
G01X7366000Y3810000D02*
X7479300D01*
G01X7252700D02*
X7366000D01*
G01Y3696700D02*
Y3810000D01*
G01X9393100Y3754000D02*
X9500000D01*
G01D02*
Y3860900D01*
G54D17*
G01X2794000Y1270000D02*
Y1124200D01*
X2749300Y1079500D01*
X1587500D01*
X1524000Y1143000D01*
Y1270000D01*
G01Y2540000D02*
X2236000D01*
X2286000Y2490000D01*
Y2286000D01*
G01X5080000Y5334000D02*
Y5474500D01*
X5030000Y5524500D01*
X4572000D01*
X4445000Y5397500D01*
X1574000D01*
X1524000Y5447500D01*
Y5588000D01*
G01X3810000Y5080000D02*
Y5213000D01*
X3771100Y5251900D01*
X2070900D01*
X2032000Y5213000D01*
Y5080000D01*
G01X3302000Y4064000D02*
X3810000D01*
G01X3302000D02*
X2857500D01*
X2794000Y4127500D01*
Y4572000D01*
G01X3302000Y5080000D02*
Y4947000D01*
X3359500Y4889500D01*
X4315600D01*
X4442600Y5016500D01*
X5270500D01*
X5334000Y4953000D01*
Y4826000D01*
G01X3302000Y5080000D02*
X2844000D01*
X2794000Y5030000D01*
Y4826000D01*
G01X3810000Y4064000D02*
Y3873500D01*
X3937000Y3746500D01*
X5206900D01*
X5334000Y3873600D01*
Y4064000D01*
G01X5080000D02*
Y3923600D01*
X5029900Y3873500D01*
X4368000D01*
X4318000Y3923500D01*
Y4064000D01*
G01X7874000Y2794000D02*
Y2145500D01*
X7824000Y2095500D01*
X5143500D01*
X5016500Y1968500D01*
Y1256500D01*
X5066500Y1206500D01*
X5792000D01*
X5842000Y1156500D01*
Y1016000D01*
G01X5588000Y2286000D02*
Y2730500D01*
X5651500Y2794000D01*
X6858000D01*
G01X5842000Y1778000D02*
Y1905000D01*
X5905500Y1968500D01*
X9030500D01*
X9080500Y2018500D01*
Y3760000D01*
X9030500Y3810000D01*
X8890000D01*
G01X5842000Y3048000D02*
Y3175000D01*
X5905500Y3238500D01*
X6604000D01*
X6667500Y3302000D01*
Y3760000D01*
X6717500Y3810000D01*
X6858000D01*
G01Y2794000D02*
X7366000D01*
G01X6858000Y3810000D02*
Y3950500D01*
X6908000Y4000500D01*
X8332000D01*
X8382000Y3950500D01*
Y3810000D01*
G01X7874000Y2794000D02*
X8382000D01*
G01X8890000D02*
X8382000D01*
G01X9500000Y3500000D02*
X9373400D01*
X9365900Y3492500D01*
X9257500D01*
X9207500Y3542500D01*
Y3950500D01*
X9157500Y4000500D01*
X8940000D01*
X8890000Y3950500D01*
Y3810000D01*
M02*
